<?xml version="1.0" encoding="UTF-8" standalone="no"?><svg xmlns="http://www.w3.org/2000/svg" xmlns:xlink="http://www.w3.org/1999/xlink" contentScriptType="application/ecmascript" contentStyleType="text/css" height="3127px" preserveAspectRatio="none" style="width:406px;height:3127px;" version="1.1" viewBox="0 0 406 3127" width="406px" zoomAndPan="magnify"><defs><filter height="300%" id="fvks4c1bzn93a" width="300%" x="-1" y="-1"><feGaussianBlur result="blurOut" stdDeviation="2.0"/><feColorMatrix in="blurOut" result="blurOut2" type="matrix" values="0 0 0 0 0 0 0 0 0 0 0 0 0 0 0 0 0 0 .4 0"/><feOffset dx="4.0" dy="4.0" in="blurOut2" result="blurOut3"/><feBlend in="SourceGraphic" in2="blurOut3" mode="normal"/></filter></defs><g><ellipse cx="200" cy="20" fill="#0000FF" filter="url(#fvks4c1bzn93a)" rx="10" ry="10" style="stroke:none;stroke-width:1.0;"/><rect fill="#FFFF00" filter="url(#fvks4c1bzn93a)" height="515.9219" style="stroke:#FFFFFF;stroke-width:2.0;" width="201" x="99.5" y="40"/><path d="M205.5,40 L205.5,49.2969 L195.5,59.2969 L99.5,59.2969 " fill="none" style="stroke:#FFFFFF;stroke-width:2.0;"/><text fill="#000000" font-family="sans-serif" font-size="14" font-weight="bold" lengthAdjust="spacing" textLength="96" x="102.5" y="53.9951">introduction</text><rect fill="#F0F8FF" filter="url(#fvks4c1bzn93a)" height="47.9375" rx="12.5" ry="12.5" style="stroke:#FFFFFF;stroke-width:1.5;" width="164" x="118" y="76.2969"/><text fill="#000000" font-family="sans-serif" font-size="12" lengthAdjust="spacing" textLength="139" x="128" y="97.4355">Document information</text><a href="tex/02_introduction.tex" target="_top" title="tex/02_introduction.tex" xlink:actuate="onRequest" xlink:href="tex/02_introduction.tex" xlink:show="new" xlink:title="tex/02_introduction.tex" xlink:type="simple"><text fill="#0000FF" font-family="sans-serif" font-size="12" lengthAdjust="spacing" text-decoration="underline" textLength="144" x="128" y="111.4043">tex/02_introduction.tex</text></a><rect fill="#F0F8FF" filter="url(#fvks4c1bzn93a)" height="33.9688" rx="12.5" ry="12.5" style="stroke:#FFFFFF;stroke-width:1.5;" width="181" x="109.5" y="144.2344"/><text fill="#000000" font-family="sans-serif" font-size="12" lengthAdjust="spacing" textLength="161" x="119.5" y="165.373">Define the subject matter</text><rect fill="#F0F8FF" filter="url(#fvks4c1bzn93a)" height="47.9375" rx="12.5" ry="12.5" style="stroke:#FFFFFF;stroke-width:1.5;" width="135" x="132.5" y="198.2031"/><text fill="#000000" font-family="sans-serif" font-size="12" lengthAdjust="spacing" textLength="115" x="142.5" y="219.3418">Define the thesis -</text><text fill="#000000" font-family="sans-serif" font-size="12" lengthAdjust="spacing" textLength="114" x="142.5" y="233.3105">The Circle Of Trust</text><rect fill="#F0F8FF" filter="url(#fvks4c1bzn93a)" height="61.9063" rx="12.5" ry="12.5" style="stroke:#FFFFFF;stroke-width:1.5;" width="162" x="119" y="266.1406"/><text fill="#000000" font-family="sans-serif" font-size="12" lengthAdjust="spacing" textLength="109" x="129" y="287.2793">Define exclusions</text><text fill="#000000" font-family="sans-serif" font-size="12" lengthAdjust="spacing" textLength="142" x="129" y="301.248">:Introduction (to topic)</text><text fill="#000000" font-family="sans-serif" font-size="12" lengthAdjust="spacing" textLength="121" x="129" y="315.2168">:Critical Information</text><rect fill="#F0F8FF" filter="url(#fvks4c1bzn93a)" height="33.9688" rx="12.5" ry="12.5" style="stroke:#FFFFFF;stroke-width:1.5;" width="106" x="147" y="348.0469"/><text fill="#000000" font-family="sans-serif" font-size="12" lengthAdjust="spacing" textLength="86" x="157" y="369.1855">Infrastructure</text><rect fill="#F0F8FF" filter="url(#fvks4c1bzn93a)" height="33.9688" rx="12.5" ry="12.5" style="stroke:#FFFFFF;stroke-width:1.5;" width="129" x="135.5" y="402.0156"/><text fill="#000000" font-family="sans-serif" font-size="12" lengthAdjust="spacing" textLength="109" x="145.5" y="423.1543">Thesis statement</text><rect fill="#F0F8FF" filter="url(#fvks4c1bzn93a)" height="33.9688" rx="12.5" ry="12.5" style="stroke:#FFFFFF;stroke-width:1.5;" width="112" x="144" y="455.9844"/><text fill="#000000" font-family="sans-serif" font-size="12" lengthAdjust="spacing" textLength="92" x="154" y="477.123">Subject Matter</text><rect fill="#F0F8FF" filter="url(#fvks4c1bzn93a)" height="33.9688" rx="12.5" ry="12.5" style="stroke:#FFFFFF;stroke-width:1.5;" width="85" x="157.5" y="509.9531"/><text fill="#000000" font-family="sans-serif" font-size="12" lengthAdjust="spacing" textLength="65" x="167.5" y="531.0918">Exclusions</text><rect fill="#FFFFFF" filter="url(#fvks4c1bzn93a)" height="2236.7813" style="stroke:#FFFFFF;stroke-width:2.0;" width="378" x="11" y="565.9219"/><path d="M60,565.9219 L60,575.2188 L50,585.2188 L11,585.2188 " fill="none" style="stroke:#FFFFFF;stroke-width:2.0;"/><text fill="#000000" font-family="sans-serif" font-size="14" font-weight="bold" lengthAdjust="spacing" textLength="39" x="14" y="579.917">Body</text><rect fill="#FF7F50" filter="url(#fvks4c1bzn93a)" height="312.1094" style="stroke:#FFFFFF;stroke-width:2.0;" width="352" x="24" y="595.2188"/><path d="M113,595.2188 L113,604.5156 L103,614.5156 L24,614.5156 " fill="none" style="stroke:#FFFFFF;stroke-width:2.0;"/><text fill="#000000" font-family="sans-serif" font-size="14" lengthAdjust="spacing" textLength="79" x="27" y="609.2139">Paragraph1</text><rect fill="#F0F8FF" filter="url(#fvks4c1bzn93a)" height="47.9375" rx="12.5" ry="12.5" style="stroke:#FFFFFF;stroke-width:1.5;" width="158" x="121" y="631.5156"/><text fill="#000000" font-family="sans-serif" font-size="12" font-weight="bold" lengthAdjust="spacing" textLength="108" x="131" y="652.6543">Topic Sentence</text><text fill="#000000" font-family="sans-serif" font-size="12" lengthAdjust="spacing" textLength="138" x="131" y="666.623">The issue of definition</text><rect fill="#F0F8FF" filter="url(#fvks4c1bzn93a)" height="33.9688" rx="12.5" ry="12.5" style="stroke:#FFFFFF;stroke-width:1.5;" width="204" x="98" y="699.4531"/><text fill="#000000" font-family="sans-serif" font-size="12" lengthAdjust="spacing" textLength="184" x="108" y="720.5918">Why definitions are important</text><rect fill="#F0F8FF" filter="url(#fvks4c1bzn93a)" height="33.9688" rx="12.5" ry="12.5" style="stroke:#FFFFFF;stroke-width:1.5;" width="230" x="85" y="753.4219"/><text fill="#000000" font-family="sans-serif" font-size="12" lengthAdjust="spacing" textLength="210" x="95" y="774.5605">Norways definition differs from EU</text><rect fill="#F0F8FF" filter="url(#fvks4c1bzn93a)" height="33.9688" rx="12.5" ry="12.5" style="stroke:#FFFFFF;stroke-width:1.5;" width="332" x="34" y="807.3906"/><text fill="#000000" font-family="sans-serif" font-size="12" lengthAdjust="spacing" textLength="312" x="44" y="828.5293">Different country defines different threath models</text><rect fill="#F0F8FF" filter="url(#fvks4c1bzn93a)" height="33.9688" rx="12.5" ry="12.5" style="stroke:#FFFFFF;stroke-width:1.5;" width="188" x="106" y="861.3594"/><text fill="#000000" font-family="sans-serif" font-size="12" lengthAdjust="spacing" textLength="168" x="116" y="882.498">Diffent difinitions of priority</text><rect fill="#FFFFFF" filter="url(#fvks4c1bzn93a)" height="407.9844" style="stroke:#FFFFFF;stroke-width:2.0;" width="298" x="51" y="917.3281"/><path d="M140,917.3281 L140,926.625 L130,936.625 L51,936.625 " fill="none" style="stroke:#FFFFFF;stroke-width:2.0;"/><text fill="#000000" font-family="sans-serif" font-size="14" lengthAdjust="spacing" textLength="79" x="54" y="931.3232">Paragraph2</text><rect fill="#F0F8FF" filter="url(#fvks4c1bzn93a)" height="61.9063" rx="12.5" ry="12.5" style="stroke:#FFFFFF;stroke-width:1.5;" width="143" x="128.5" y="953.625"/><text fill="#000000" font-family="sans-serif" font-size="12" font-weight="bold" lengthAdjust="spacing" textLength="108" x="138.5" y="974.7637">Topic Sentence</text><text fill="#000000" font-family="sans-serif" font-size="12" lengthAdjust="spacing" textLength="123" x="138.5" y="988.7324">Everything relies on</text><text fill="#000000" font-family="sans-serif" font-size="12" lengthAdjust="spacing" textLength="111" x="138.5" y="1002.7012">the infrastructure</text><rect fill="#F0F8FF" filter="url(#fvks4c1bzn93a)" height="33.9688" rx="12.5" ry="12.5" style="stroke:#FFFFFF;stroke-width:1.5;" width="175" x="112.5" y="1035.5313"/><text fill="#000000" font-family="sans-serif" font-size="12" lengthAdjust="spacing" textLength="155" x="122.5" y="1056.6699">Define the infrastructure</text><rect fill="#F0F8FF" filter="url(#fvks4c1bzn93a)" height="33.9688" rx="12.5" ry="12.5" style="stroke:#FFFFFF;stroke-width:1.5;" width="173" x="113.5" y="1089.5"/><text fill="#000000" font-family="sans-serif" font-size="12" lengthAdjust="spacing" textLength="153" x="123.5" y="1110.6387">Define Financial Industry</text><rect fill="#F0F8FF" filter="url(#fvks4c1bzn93a)" height="33.9688" rx="12.5" ry="12.5" style="stroke:#FFFFFF;stroke-width:1.5;" width="239" x="80.5" y="1143.4688"/><text fill="#000000" font-family="sans-serif" font-size="12" lengthAdjust="spacing" textLength="219" x="90.5" y="1164.6074">Define Telecommunication Industry</text><rect fill="#F0F8FF" filter="url(#fvks4c1bzn93a)" height="47.9375" rx="12.5" ry="12.5" style="stroke:#FFFFFF;stroke-width:1.5;" width="264" x="68" y="1197.4375"/><text fill="#000000" font-family="sans-serif" font-size="12" lengthAdjust="spacing" textLength="244" x="78" y="1218.5762">Outline CySec status Norways Financial</text><text fill="#000000" font-family="sans-serif" font-size="12" lengthAdjust="spacing" textLength="203" x="78" y="1232.5449">and Telecommunication industry</text><rect fill="#F0F8FF" filter="url(#fvks4c1bzn93a)" height="47.9375" rx="12.5" ry="12.5" style="stroke:#FFFFFF;stroke-width:1.5;" width="278" x="61" y="1265.375"/><text fill="#000000" font-family="sans-serif" font-size="12" lengthAdjust="spacing" textLength="258" x="71" y="1286.5137">Summarize NSM and PST reports relevant</text><text fill="#000000" font-family="sans-serif" font-size="12" lengthAdjust="spacing" textLength="173" x="71" y="1300.4824">to the 2 industries in scope</text><rect fill="#FFFFFF" filter="url(#fvks4c1bzn93a)" height="655.6094" style="stroke:#FFFFFF;stroke-width:2.0;" width="328" x="36" y="1335.3125"/><path d="M125,1335.3125 L125,1344.6094 L115,1354.6094 L36,1354.6094 " fill="none" style="stroke:#FFFFFF;stroke-width:2.0;"/><text fill="#000000" font-family="sans-serif" font-size="14" lengthAdjust="spacing" textLength="79" x="39" y="1349.3076">Paragraph3</text><rect fill="#F0F8FF" filter="url(#fvks4c1bzn93a)" height="75.875" rx="12.5" ry="12.5" style="stroke:#FFFFFF;stroke-width:1.5;" width="162" x="119" y="1371.6094"/><text fill="#000000" font-family="sans-serif" font-size="12" font-weight="bold" lengthAdjust="spacing" textLength="108" x="129" y="1392.748">Topic Sentence</text><text fill="#000000" font-family="sans-serif" font-size="12" lengthAdjust="spacing" textLength="137" x="129" y="1406.7168">Holistic approach and</text><text fill="#000000" font-family="sans-serif" font-size="12" lengthAdjust="spacing" textLength="142" x="129" y="1420.6855">extensive collatoration</text><text fill="#000000" font-family="sans-serif" font-size="12" lengthAdjust="spacing" textLength="67" x="129" y="1434.6543">is required</text><rect fill="#F0F8FF" filter="url(#fvks4c1bzn93a)" height="47.9375" rx="12.5" ry="12.5" style="stroke:#FFFFFF;stroke-width:1.5;" width="293" x="53.5" y="1467.4844"/><text fill="#000000" font-family="sans-serif" font-size="12" lengthAdjust="spacing" textLength="150" x="63.5" y="1488.623">Reiterate the objectives</text><text fill="#000000" font-family="sans-serif" font-size="12" lengthAdjust="spacing" textLength="273" x="63.5" y="1502.5918">stated in Norways Cyber Security strategies</text><rect fill="#F0F8FF" filter="url(#fvks4c1bzn93a)" height="89.8438" rx="12.5" ry="12.5" style="stroke:#FFFFFF;stroke-width:1.5;" width="250" x="75" y="1535.4219"/><text fill="#000000" font-family="sans-serif" font-size="12" lengthAdjust="spacing" textLength="230" x="85" y="1556.5605">Address guidelines and policies from</text><text fill="#000000" font-family="sans-serif" font-size="12" lengthAdjust="spacing" textLength="23" x="85" y="1570.5293">PST</text><text fill="#000000" font-family="sans-serif" font-size="12" lengthAdjust="spacing" textLength="27" x="85" y="1584.498">NSM</text><text fill="#000000" font-family="sans-serif" font-size="12" lengthAdjust="spacing" textLength="14" x="85" y="1598.4668">FT</text><text fill="#000000" font-family="sans-serif" font-size="12" lengthAdjust="spacing" textLength="98" x="85" y="1612.4355">and Justice Dep</text><rect fill="#F0F8FF" filter="url(#fvks4c1bzn93a)" height="75.875" rx="12.5" ry="12.5" style="stroke:#FFFFFF;stroke-width:1.5;" width="299" x="50.5" y="1645.2656"/><text fill="#000000" font-family="sans-serif" font-size="12" lengthAdjust="spacing" textLength="279" x="60.5" y="1666.4043">Describe how Norways authorities delegates</text><text fill="#000000" font-family="sans-serif" font-size="12" lengthAdjust="spacing" textLength="123" x="60.5" y="1680.373">CySec responsibility</text><text fill="#000000" font-family="sans-serif" font-size="12" lengthAdjust="spacing" textLength="114" x="60.5" y="1694.3418">Coordinate efforts</text><text fill="#000000" font-family="sans-serif" font-size="12" lengthAdjust="spacing" textLength="94" x="60.5" y="1708.3105">Enfoce policies</text><rect fill="#F0F8FF" filter="url(#fvks4c1bzn93a)" height="47.9375" rx="12.5" ry="12.5" style="stroke:#FFFFFF;stroke-width:1.5;" width="306" x="47" y="1741.1406"/><text fill="#000000" font-family="sans-serif" font-size="12" lengthAdjust="spacing" textLength="282" x="57" y="1762.2793">Emphazise that Norway require many entities</text><text fill="#000000" font-family="sans-serif" font-size="12" lengthAdjust="spacing" textLength="286" x="57" y="1776.248">to mange and coordinate Cyber Secuity effort</text><rect fill="#F0F8FF" filter="url(#fvks4c1bzn93a)" height="47.9375" rx="12.5" ry="12.5" style="stroke:#FFFFFF;stroke-width:1.5;" width="291" x="54.5" y="1809.0781"/><text fill="#000000" font-family="sans-serif" font-size="12" lengthAdjust="spacing" textLength="271" x="64.5" y="1830.2168">Explain the advantages and disadvantages</text><text fill="#000000" font-family="sans-serif" font-size="12" lengthAdjust="spacing" textLength="143" x="64.5" y="1844.1855">with such an approach</text><rect fill="#F0F8FF" filter="url(#fvks4c1bzn93a)" height="47.9375" rx="12.5" ry="12.5" style="stroke:#FFFFFF;stroke-width:1.5;" width="230" x="85" y="1877.0156"/><text fill="#000000" font-family="sans-serif" font-size="12" lengthAdjust="spacing" textLength="210" x="95" y="1898.1543">Establish why an Holitic approach</text><text fill="#000000" font-family="sans-serif" font-size="12" lengthAdjust="spacing" textLength="176" x="95" y="1912.123">to CySec may be that better</text><rect fill="#F0F8FF" filter="url(#fvks4c1bzn93a)" height="33.9688" rx="12.5" ry="12.5" style="stroke:#FFFFFF;stroke-width:1.5;" width="308" x="46" y="1944.9531"/><text fill="#000000" font-family="sans-serif" font-size="12" lengthAdjust="spacing" textLength="288" x="56" y="1966.0918">Provide example and justify such an approach</text><rect fill="#FFFFFF" filter="url(#fvks4c1bzn93a)" height="489.8906" style="stroke:#FFFFFF;stroke-width:2.0;" width="357" x="21.5" y="2000.9219"/><path d="M110.5,2000.9219 L110.5,2010.2188 L100.5,2020.2188 L21.5,2020.2188 " fill="none" style="stroke:#FFFFFF;stroke-width:2.0;"/><text fill="#000000" font-family="sans-serif" font-size="14" lengthAdjust="spacing" textLength="79" x="24.5" y="2014.917">Paragraph4</text><rect fill="#F0F8FF" filter="url(#fvks4c1bzn93a)" height="47.9375" rx="12.5" ry="12.5" style="stroke:#FFFFFF;stroke-width:1.5;" width="128" x="136" y="2037.2188"/><text fill="#000000" font-family="sans-serif" font-size="12" font-weight="bold" lengthAdjust="spacing" textLength="108" x="146" y="2058.3574">Topic Sentence</text><text fill="#000000" font-family="sans-serif" font-size="12" lengthAdjust="spacing" textLength="107" x="146" y="2072.3262">The case of trust</text><rect fill="#F0F8FF" filter="url(#fvks4c1bzn93a)" height="33.9688" rx="12.5" ry="12.5" style="stroke:#FFFFFF;stroke-width:1.5;" width="306" x="47" y="2105.1563"/><text fill="#000000" font-family="sans-serif" font-size="12" lengthAdjust="spacing" textLength="286" x="57" y="2126.2949">Trust is key for cooperation and collaboration</text><rect fill="#F0F8FF" filter="url(#fvks4c1bzn93a)" height="33.9688" rx="12.5" ry="12.5" style="stroke:#FFFFFF;stroke-width:1.5;" width="337" x="31.5" y="2159.125"/><text fill="#000000" font-family="sans-serif" font-size="12" lengthAdjust="spacing" textLength="317" x="41.5" y="2180.2637">Describe why CySec is not purely a techinical issue</text><rect fill="#F0F8FF" filter="url(#fvks4c1bzn93a)" height="33.9688" rx="12.5" ry="12.5" style="stroke:#FFFFFF;stroke-width:1.5;" width="230" x="85" y="2213.0938"/><text fill="#000000" font-family="sans-serif" font-size="12" lengthAdjust="spacing" textLength="210" x="95" y="2234.2324">Define what Circle of Trust entails</text><rect fill="#F0F8FF" filter="url(#fvks4c1bzn93a)" height="47.9375" rx="12.5" ry="12.5" style="stroke:#FFFFFF;stroke-width:1.5;" width="175" x="112.5" y="2267.0625"/><text fill="#000000" font-family="sans-serif" font-size="12" lengthAdjust="spacing" textLength="155" x="122.5" y="2288.2012">Establish how CySec and</text><text fill="#000000" font-family="sans-serif" font-size="12" lengthAdjust="spacing" textLength="138" x="122.5" y="2302.1699">Privacy are interlinked</text><rect fill="#F0F8FF" filter="url(#fvks4c1bzn93a)" height="47.9375" rx="12.5" ry="12.5" style="stroke:#FFFFFF;stroke-width:1.5;" width="251" x="74.5" y="2335"/><text fill="#000000" font-family="sans-serif" font-size="12" lengthAdjust="spacing" textLength="231" x="84.5" y="2356.1387">Summarize how Privacy are managed</text><text fill="#000000" font-family="sans-serif" font-size="12" lengthAdjust="spacing" textLength="32" x="84.5" y="2370.1074">in EU</text><rect fill="#F0F8FF" filter="url(#fvks4c1bzn93a)" height="75.875" rx="12.5" ry="12.5" style="stroke:#FFFFFF;stroke-width:1.5;" width="250" x="75" y="2402.9375"/><text fill="#000000" font-family="sans-serif" font-size="12" lengthAdjust="spacing" textLength="230" x="85" y="2424.0762">Describe how EU and Norway plan to</text><text fill="#000000" font-family="sans-serif" font-size="12" lengthAdjust="spacing" textLength="57" x="85" y="2438.0449">establish</text><text fill="#000000" font-family="sans-serif" font-size="12" lengthAdjust="spacing" textLength="50" x="85" y="2452.0137">balance</text><text fill="#000000" font-family="sans-serif" font-size="12" lengthAdjust="spacing" textLength="181" x="85" y="2465.9824">and enforce the cirle of trust</text><rect fill="#FFFFFF" filter="url(#fvks4c1bzn93a)" height="289.8906" style="stroke:#FFFFFF;stroke-width:2.0;" width="358" x="21" y="2500.8125"/><path d="M110,2500.8125 L110,2510.1094 L100,2520.1094 L21,2520.1094 " fill="none" style="stroke:#FFFFFF;stroke-width:2.0;"/><text fill="#000000" font-family="sans-serif" font-size="14" lengthAdjust="spacing" textLength="79" x="24" y="2514.8076">Paragraph5</text><rect fill="#F0F8FF" filter="url(#fvks4c1bzn93a)" height="61.9063" rx="12.5" ry="12.5" style="stroke:#FFFFFF;stroke-width:1.5;" width="338" x="31" y="2537.1094"/><text fill="#000000" font-family="sans-serif" font-size="12" font-weight="bold" lengthAdjust="spacing" textLength="108" x="41" y="2558.248">Topic Sentence</text><text fill="#000000" font-family="sans-serif" font-size="12" lengthAdjust="spacing" textLength="318" x="41" y="2572.2168">State of Inforation &amp; Comminucation Infrastructure</text><text fill="#000000" font-family="sans-serif" font-size="12" lengthAdjust="spacing" textLength="152" x="41" y="2586.1855">is not too bad in Norway</text><rect fill="#F0F8FF" filter="url(#fvks4c1bzn93a)" height="159.6875" rx="12.5" ry="12.5" style="stroke:#FFFFFF;stroke-width:1.5;" width="128" x="136" y="2619.0156"/><text fill="#000000" font-family="sans-serif" font-size="12" lengthAdjust="spacing" textLength="81" x="146" y="2640.1543">Compared to</text><text fill="#000000" font-family="sans-serif" font-size="12" lengthAdjust="spacing" textLength="53" x="146" y="2654.123">Sweden,</text><text fill="#000000" font-family="sans-serif" font-size="12" lengthAdjust="spacing" textLength="60" x="146" y="2668.0918">Denmark,</text><text fill="#000000" font-family="sans-serif" font-size="12" lengthAdjust="spacing" textLength="49" x="146" y="2682.0605">Finland,</text><text fill="#000000" font-family="sans-serif" font-size="12" lengthAdjust="spacing" textLength="49" x="146" y="2696.0293">Iceland,</text><text fill="#000000" font-family="sans-serif" font-size="12" lengthAdjust="spacing" textLength="20" x="146" y="2709.998">UK,</text><text fill="#000000" font-family="sans-serif" font-size="12" lengthAdjust="spacing" textLength="45" x="146" y="2723.9668">Russia,</text><text fill="#000000" font-family="sans-serif" font-size="12" lengthAdjust="spacing" textLength="47" x="146" y="2737.9355">France,</text><text fill="#000000" font-family="sans-serif" font-size="12" lengthAdjust="spacing" textLength="108" x="146" y="2751.9043">The Netherlands,</text><text fill="#000000" font-family="sans-serif" font-size="12" lengthAdjust="spacing" textLength="91" x="146" y="2765.873">and Bulgaria. .</text><rect fill="#FFFFFF" filter="url(#fvks4c1bzn93a)" height="258.1406" style="stroke:#FFFFFF;stroke-width:2.0;" width="339" x="30.5" y="2812.7031"/><path d="M117.5,2812.7031 L117.5,2822 L107.5,2832 L30.5,2832 " fill="none" style="stroke:#FFFFFF;stroke-width:2.0;"/><text fill="#000000" font-family="sans-serif" font-size="14" lengthAdjust="spacing" textLength="77" x="33.5" y="2826.6982">Conclusion</text><rect fill="#F0F8FF" filter="url(#fvks4c1bzn93a)" height="33.9688" rx="12.5" ry="12.5" style="stroke:#FFFFFF;stroke-width:1.5;" width="181" x="109.5" y="2849"/><text fill="#000000" font-family="sans-serif" font-size="12" lengthAdjust="spacing" textLength="161" x="119.5" y="2870.1387">Gather the golden thread</text><rect fill="#F0F8FF" filter="url(#fvks4c1bzn93a)" height="33.9688" rx="12.5" ry="12.5" style="stroke:#FFFFFF;stroke-width:1.5;" width="216" x="92" y="2902.9688"/><text fill="#000000" font-family="sans-serif" font-size="12" lengthAdjust="spacing" textLength="196" x="102" y="2924.1074">Reemphezise that TRUST IS KEY</text><rect fill="#F0F8FF" filter="url(#fvks4c1bzn93a)" height="33.9688" rx="12.5" ry="12.5" style="stroke:#FFFFFF;stroke-width:1.5;" width="319" x="40.5" y="2956.9375"/><text fill="#000000" font-family="sans-serif" font-size="12" lengthAdjust="spacing" textLength="299" x="50.5" y="2978.0762">Technical solutions are only part of the solution</text><rect fill="#F0F8FF" filter="url(#fvks4c1bzn93a)" height="47.9375" rx="12.5" ry="12.5" style="stroke:#FFFFFF;stroke-width:1.5;" width="231" x="84.5" y="3010.9063"/><text fill="#000000" font-family="sans-serif" font-size="12" lengthAdjust="spacing" textLength="211" x="94.5" y="3032.0449">This is shit is going to be a rather</text><text fill="#000000" font-family="sans-serif" font-size="12" lengthAdjust="spacing" textLength="87" x="94.5" y="3046.0137">lengthy paper</text><ellipse cx="200" cy="3100.8438" fill="#FFFFFF" filter="url(#fvks4c1bzn93a)" rx="10" ry="10" style="stroke:#008000;stroke-width:1.5;"/><line style="stroke:#008000;stroke-width:2.5;" x1="193.8128" x2="206.1872" y1="3094.6566" y2="3107.0309"/><line style="stroke:#008000;stroke-width:2.5;" x1="206.1872" x2="193.8128" y1="3094.6566" y2="3107.0309"/><line style="stroke:#4169E1;stroke-width:1.5;" x1="200" x2="200" y1="124.2344" y2="144.2344"/><polygon fill="#4169E1" points="196,134.2344,200,144.2344,204,134.2344,200,138.2344" style="stroke:#4169E1;stroke-width:1.0;"/><line style="stroke:#4169E1;stroke-width:1.5;" x1="200" x2="200" y1="178.2031" y2="198.2031"/><polygon fill="#4169E1" points="196,188.2031,200,198.2031,204,188.2031,200,192.2031" style="stroke:#4169E1;stroke-width:1.0;"/><line style="stroke:#4169E1;stroke-width:1.5;" x1="200" x2="200" y1="246.1406" y2="266.1406"/><polygon fill="#4169E1" points="196,256.1406,200,266.1406,204,256.1406,200,260.1406" style="stroke:#4169E1;stroke-width:1.0;"/><line style="stroke:#4169E1;stroke-width:1.5;" x1="200" x2="200" y1="328.0469" y2="348.0469"/><polygon fill="#4169E1" points="196,338.0469,200,348.0469,204,338.0469,200,342.0469" style="stroke:#4169E1;stroke-width:1.0;"/><line style="stroke:#4169E1;stroke-width:1.5;" x1="200" x2="200" y1="382.0156" y2="402.0156"/><polygon fill="#4169E1" points="196,392.0156,200,402.0156,204,392.0156,200,396.0156" style="stroke:#4169E1;stroke-width:1.0;"/><line style="stroke:#4169E1;stroke-width:1.5;" x1="200" x2="200" y1="435.9844" y2="455.9844"/><polygon fill="#4169E1" points="196,445.9844,200,455.9844,204,445.9844,200,449.9844" style="stroke:#4169E1;stroke-width:1.0;"/><line style="stroke:#4169E1;stroke-width:1.5;" x1="200" x2="200" y1="489.9531" y2="509.9531"/><polygon fill="#4169E1" points="196,499.9531,200,509.9531,204,499.9531,200,503.9531" style="stroke:#4169E1;stroke-width:1.0;"/><line style="stroke:#4169E1;stroke-width:1.5;" x1="200" x2="200" y1="30" y2="76.2969"/><polygon fill="#4169E1" points="196,66.2969,200,76.2969,204,66.2969,200,70.2969" style="stroke:#4169E1;stroke-width:1.0;"/><line style="stroke:#4169E1;stroke-width:1.5;" x1="200" x2="200" y1="679.4531" y2="699.4531"/><polygon fill="#4169E1" points="196,689.4531,200,699.4531,204,689.4531,200,693.4531" style="stroke:#4169E1;stroke-width:1.0;"/><line style="stroke:#4169E1;stroke-width:1.5;" x1="200" x2="200" y1="733.4219" y2="753.4219"/><polygon fill="#4169E1" points="196,743.4219,200,753.4219,204,743.4219,200,747.4219" style="stroke:#4169E1;stroke-width:1.0;"/><line style="stroke:#4169E1;stroke-width:1.5;" x1="200" x2="200" y1="787.3906" y2="807.3906"/><polygon fill="#4169E1" points="196,797.3906,200,807.3906,204,797.3906,200,801.3906" style="stroke:#4169E1;stroke-width:1.0;"/><line style="stroke:#4169E1;stroke-width:1.5;" x1="200" x2="200" y1="841.3594" y2="861.3594"/><polygon fill="#4169E1" points="196,851.3594,200,861.3594,204,851.3594,200,855.3594" style="stroke:#4169E1;stroke-width:1.0;"/><line style="stroke:#4169E1;stroke-width:1.5;" x1="200" x2="200" y1="1015.5313" y2="1035.5313"/><polygon fill="#4169E1" points="196,1025.5313,200,1035.5313,204,1025.5313,200,1029.5313" style="stroke:#4169E1;stroke-width:1.0;"/><line style="stroke:#4169E1;stroke-width:1.5;" x1="200" x2="200" y1="1069.5" y2="1089.5"/><polygon fill="#4169E1" points="196,1079.5,200,1089.5,204,1079.5,200,1083.5" style="stroke:#4169E1;stroke-width:1.0;"/><line style="stroke:#4169E1;stroke-width:1.5;" x1="200" x2="200" y1="1123.4688" y2="1143.4688"/><polygon fill="#4169E1" points="196,1133.4688,200,1143.4688,204,1133.4688,200,1137.4688" style="stroke:#4169E1;stroke-width:1.0;"/><line style="stroke:#4169E1;stroke-width:1.5;" x1="200" x2="200" y1="1177.4375" y2="1197.4375"/><polygon fill="#4169E1" points="196,1187.4375,200,1197.4375,204,1187.4375,200,1191.4375" style="stroke:#4169E1;stroke-width:1.0;"/><line style="stroke:#4169E1;stroke-width:1.5;" x1="200" x2="200" y1="1245.375" y2="1265.375"/><polygon fill="#4169E1" points="196,1255.375,200,1265.375,204,1255.375,200,1259.375" style="stroke:#4169E1;stroke-width:1.0;"/><line style="stroke:#4169E1;stroke-width:1.5;" x1="200" x2="200" y1="895.3281" y2="953.625"/><polygon fill="#4169E1" points="196,943.625,200,953.625,204,943.625,200,947.625" style="stroke:#4169E1;stroke-width:1.0;"/><line style="stroke:#4169E1;stroke-width:1.5;" x1="200" x2="200" y1="1447.4844" y2="1467.4844"/><polygon fill="#4169E1" points="196,1457.4844,200,1467.4844,204,1457.4844,200,1461.4844" style="stroke:#4169E1;stroke-width:1.0;"/><line style="stroke:#4169E1;stroke-width:1.5;" x1="200" x2="200" y1="1515.4219" y2="1535.4219"/><polygon fill="#4169E1" points="196,1525.4219,200,1535.4219,204,1525.4219,200,1529.4219" style="stroke:#4169E1;stroke-width:1.0;"/><line style="stroke:#4169E1;stroke-width:1.5;" x1="200" x2="200" y1="1625.2656" y2="1645.2656"/><polygon fill="#4169E1" points="196,1635.2656,200,1645.2656,204,1635.2656,200,1639.2656" style="stroke:#4169E1;stroke-width:1.0;"/><line style="stroke:#4169E1;stroke-width:1.5;" x1="200" x2="200" y1="1721.1406" y2="1741.1406"/><polygon fill="#4169E1" points="196,1731.1406,200,1741.1406,204,1731.1406,200,1735.1406" style="stroke:#4169E1;stroke-width:1.0;"/><line style="stroke:#4169E1;stroke-width:1.5;" x1="200" x2="200" y1="1789.0781" y2="1809.0781"/><polygon fill="#4169E1" points="196,1799.0781,200,1809.0781,204,1799.0781,200,1803.0781" style="stroke:#4169E1;stroke-width:1.0;"/><line style="stroke:#4169E1;stroke-width:1.5;" x1="200" x2="200" y1="1857.0156" y2="1877.0156"/><polygon fill="#4169E1" points="196,1867.0156,200,1877.0156,204,1867.0156,200,1871.0156" style="stroke:#4169E1;stroke-width:1.0;"/><line style="stroke:#4169E1;stroke-width:1.5;" x1="200" x2="200" y1="1924.9531" y2="1944.9531"/><polygon fill="#4169E1" points="196,1934.9531,200,1944.9531,204,1934.9531,200,1938.9531" style="stroke:#4169E1;stroke-width:1.0;"/><line style="stroke:#4169E1;stroke-width:1.5;" x1="200" x2="200" y1="1313.3125" y2="1371.6094"/><polygon fill="#4169E1" points="196,1361.6094,200,1371.6094,204,1361.6094,200,1365.6094" style="stroke:#4169E1;stroke-width:1.0;"/><line style="stroke:#4169E1;stroke-width:1.5;" x1="200" x2="200" y1="2085.1563" y2="2105.1563"/><polygon fill="#4169E1" points="196,2095.1563,200,2105.1563,204,2095.1563,200,2099.1563" style="stroke:#4169E1;stroke-width:1.0;"/><line style="stroke:#4169E1;stroke-width:1.5;" x1="200" x2="200" y1="2139.125" y2="2159.125"/><polygon fill="#4169E1" points="196,2149.125,200,2159.125,204,2149.125,200,2153.125" style="stroke:#4169E1;stroke-width:1.0;"/><line style="stroke:#4169E1;stroke-width:1.5;" x1="200" x2="200" y1="2193.0938" y2="2213.0938"/><polygon fill="#4169E1" points="196,2203.0938,200,2213.0938,204,2203.0938,200,2207.0938" style="stroke:#4169E1;stroke-width:1.0;"/><line style="stroke:#4169E1;stroke-width:1.5;" x1="200" x2="200" y1="2247.0625" y2="2267.0625"/><polygon fill="#4169E1" points="196,2257.0625,200,2267.0625,204,2257.0625,200,2261.0625" style="stroke:#4169E1;stroke-width:1.0;"/><line style="stroke:#4169E1;stroke-width:1.5;" x1="200" x2="200" y1="2315" y2="2335"/><polygon fill="#4169E1" points="196,2325,200,2335,204,2325,200,2329" style="stroke:#4169E1;stroke-width:1.0;"/><line style="stroke:#4169E1;stroke-width:1.5;" x1="200" x2="200" y1="2382.9375" y2="2402.9375"/><polygon fill="#4169E1" points="196,2392.9375,200,2402.9375,204,2392.9375,200,2396.9375" style="stroke:#4169E1;stroke-width:1.0;"/><line style="stroke:#4169E1;stroke-width:1.5;" x1="200" x2="200" y1="1978.9219" y2="2037.2188"/><polygon fill="#4169E1" points="196,2027.2188,200,2037.2188,204,2027.2188,200,2031.2188" style="stroke:#4169E1;stroke-width:1.0;"/><line style="stroke:#4169E1;stroke-width:1.5;" x1="200" x2="200" y1="2599.0156" y2="2619.0156"/><polygon fill="#4169E1" points="196,2609.0156,200,2619.0156,204,2609.0156,200,2613.0156" style="stroke:#4169E1;stroke-width:1.0;"/><line style="stroke:#4169E1;stroke-width:1.5;" x1="200" x2="200" y1="2478.8125" y2="2537.1094"/><polygon fill="#4169E1" points="196,2527.1094,200,2537.1094,204,2527.1094,200,2531.1094" style="stroke:#4169E1;stroke-width:1.0;"/><line style="stroke:#4169E1;stroke-width:1.5;" x1="200" x2="200" y1="543.9219" y2="631.5156"/><polygon fill="#4169E1" points="196,621.5156,200,631.5156,204,621.5156,200,625.5156" style="stroke:#4169E1;stroke-width:1.0;"/><line style="stroke:#4169E1;stroke-width:1.5;" x1="200" x2="200" y1="2882.9688" y2="2902.9688"/><polygon fill="#4169E1" points="196,2892.9688,200,2902.9688,204,2892.9688,200,2896.9688" style="stroke:#4169E1;stroke-width:1.0;"/><line style="stroke:#4169E1;stroke-width:1.5;" x1="200" x2="200" y1="2936.9375" y2="2956.9375"/><polygon fill="#4169E1" points="196,2946.9375,200,2956.9375,204,2946.9375,200,2950.9375" style="stroke:#4169E1;stroke-width:1.0;"/><line style="stroke:#4169E1;stroke-width:1.5;" x1="200" x2="200" y1="2990.9063" y2="3010.9063"/><polygon fill="#4169E1" points="196,3000.9063,200,3010.9063,204,3000.9063,200,3004.9063" style="stroke:#4169E1;stroke-width:1.0;"/><line style="stroke:#4169E1;stroke-width:1.5;" x1="200" x2="200" y1="2778.7031" y2="2849"/><polygon fill="#4169E1" points="196,2839,200,2849,204,2839,200,2843" style="stroke:#4169E1;stroke-width:1.0;"/><line style="stroke:#4169E1;stroke-width:1.5;" x1="200" x2="200" y1="3058.8438" y2="3090.8438"/><polygon fill="#4169E1" points="196,3080.8438,200,3090.8438,204,3080.8438,200,3084.8438" style="stroke:#4169E1;stroke-width:1.0;"/><!--MD5=[202c2657413d1740707ed49b0db18b88]
@startuml Studio_1_Activity_Diagram

skinparam ActivityFontColor automatic
skinparam ActivityBackgroundColor #AliceBlue
skinparam ActivityBorderColor #transparent
skinparam ActivityStartColor #Blue
skinparam ActivityEndColor #Green
skinparam PartitionBorderColor #white
skinparam ArrowColor #RoyalBlue

start

partition **introduction** #Yellow {
    :Document information
    [[tex/02_introduction.tex]];
    :Define the subject matter;
    :Define the thesis -
    The Circle Of Trust;
    :Define exclusions
    :Introduction (to topic)
    :Critical Information;
    :Infrastructure;
    :Thesis statement;
    :Subject Matter;
    :Exclusions;
}

partition **Body** {
    
    partition Paragraph1 #Coral {
        :**Topic Sentence**
        The issue of definition;
        :Why definitions are important;
        :Norways definition differs from EU;
        :Different country defines different threath models;
        :Diffent difinitions of priority;
    }

    partition Paragraph2 {
        :**Topic Sentence**
        Everything relies on
        the infrastructure;
        :Define the infrastructure;
        :Define Financial Industry;
        :Define Telecommunication Industry;
        :Outline CySec status Norways Financial
        and Telecommunication industry;
        :Summarize NSM and PST reports relevant
        to the 2 industries in scope;
    }

    partition Paragraph3 {
        :**Topic Sentence**
        Holistic approach and
        extensive collatoration
        is required;
        :Reiterate the objectives
        stated in Norways Cyber Security strategies;
        :Address guidelines and policies from
        PST
        NSM
        FT
        and Justice Dep;
        :Describe how Norways authorities delegates
        CySec responsibility
        Coordinate efforts
        Enfoce policies;
        :Emphazise that Norway require many entities
        to mange and coordinate Cyber Secuity effort;
        :Explain the advantages and disadvantages
        with such an approach;
        :Establish why an Holitic approach
        to CySec may be that better;
        :Provide example and justify such an approach;
    }
    
    partition Paragraph4 {
        :**Topic Sentence**
        The case of trust;
        :Trust is key for cooperation and collaboration;
        :Describe why CySec is not purely a techinical issue;
        :Define what Circle of Trust entails;
        :Establish how CySec and
        Privacy are interlinked;
        :Summarize how Privacy are managed
        in EU;
        :Describe how EU and Norway plan to
        establish
        balance
        and enforce the cirle of trust;
    }

    partition Paragraph5 {
        :**Topic Sentence**
        State of Inforation & Comminucation Infrastructure
        is not too bad in Norway;
        :Compared to
        Sweden,
        Denmark,
        Finland,
        Iceland,
        UK,
        Russia,
        France,
        The Netherlands,
        and Bulgaria. . ;

    }

}

partition Conclusion {
    :Gather the golden thread;
    :Reemphezise that TRUST IS KEY;
    :Technical solutions are only part of the solution;
    :This is shit is going to be a rather
    lengthy paper;
}

end

@enduml

PlantUML version 1.2021.00(Sun Jan 10 11:25:05 CET 2021)
(GPL source distribution)
Java Runtime: OpenJDK Runtime Environment
JVM: OpenJDK 64-Bit Server VM
Default Encoding: UTF-8
Language: en
Country: null
--></g></svg>