<?xml version="1.0" encoding="UTF-8" standalone="no"?><svg xmlns="http://www.w3.org/2000/svg" xmlns:xlink="http://www.w3.org/1999/xlink" contentScriptType="application/ecmascript" contentStyleType="text/css" height="1068px" preserveAspectRatio="none" style="width:385px;height:1068px;" version="1.1" viewBox="0 0 385 1068" width="385px" zoomAndPan="magnify"><defs><filter height="300%" id="f11xmgmwx7q7y4" width="300%" x="-1" y="-1"><feGaussianBlur result="blurOut" stdDeviation="2.0"/><feColorMatrix in="blurOut" result="blurOut2" type="matrix" values="0 0 0 0 0 0 0 0 0 0 0 0 0 0 0 0 0 0 .4 0"/><feOffset dx="4.0" dy="4.0" in="blurOut2" result="blurOut3"/><feBlend in="SourceGraphic" in2="blurOut3" mode="normal"/></filter></defs><g><ellipse cx="189.5" cy="20" fill="#0000FF" filter="url(#f11xmgmwx7q7y4)" rx="10" ry="10" style="stroke:none;stroke-width:1.0;"/><rect fill="#FFFFFF" filter="url(#f11xmgmwx7q7y4)" height="501.9531" style="stroke:#FFFFFF;stroke-width:2.0;" width="357" x="11" y="40"/><path d="M117,40 L117,49.2969 L107,59.2969 L11,59.2969 " fill="none" style="stroke:#FFFFFF;stroke-width:2.0;"/><text fill="#000000" font-family="sans-serif" font-size="14" font-weight="bold" lengthAdjust="spacing" textLength="96" x="14" y="53.9951">introduction</text><rect fill="#F0F8FF" filter="url(#f11xmgmwx7q7y4)" height="47.9375" rx="12.5" ry="12.5" style="stroke:#FFFFFF;stroke-width:1.5;" width="337" x="21" y="76.2969"/><text fill="#000000" font-family="sans-serif" font-size="12" lengthAdjust="spacing" textLength="139" x="31" y="97.4355">Document information</text><a href="Studio1_Analysis/tex/Studio_1_Activity_Diagram.svg" target="_top" title="Studio1_Analysis/tex/Studio_1_Activity_Diagram.svg" xlink:actuate="onRequest" xlink:href="Studio1_Analysis/tex/Studio_1_Activity_Diagram.svg" xlink:show="new" xlink:title="Studio1_Analysis/tex/Studio_1_Activity_Diagram.svg" xlink:type="simple"><text fill="#0000FF" font-family="sans-serif" font-size="12" lengthAdjust="spacing" text-decoration="underline" textLength="317" x="31" y="111.4043">Studio1_Analysis/tex/Studio_1_Activity_Diagram.svg</text></a><rect fill="#F0F8FF" filter="url(#f11xmgmwx7q7y4)" height="47.9375" rx="12.5" ry="12.5" style="stroke:#FFFFFF;stroke-width:1.5;" width="270" x="54.5" y="144.2344"/><text fill="#000000" font-family="sans-serif" font-size="12" lengthAdjust="spacing" textLength="118" x="64.5" y="165.373">Another Document</text><a href="特tudies/Studio1_Analysis/document.pdf" target="_top" title="特tudies/Studio1_Analysis/document.pdf" xlink:actuate="onRequest" xlink:href="特tudies/Studio1_Analysis/document.pdf" xlink:show="new" xlink:title="特tudies/Studio1_Analysis/document.pdf" xlink:type="simple"><text fill="#0000FF" font-family="sans-serif" font-size="12" lengthAdjust="spacing" text-decoration="underline" textLength="250" x="64.5" y="179.3418">/Studies/Studio1_Analysis/document.pdf</text></a><rect fill="#F0F8FF" filter="url(#f11xmgmwx7q7y4)" height="47.9375" rx="12.5" ry="12.5" style="stroke:#FFFFFF;stroke-width:1.5;" width="337" x="21" y="212.1719"/><text fill="#000000" font-family="sans-serif" font-size="12" lengthAdjust="spacing" textLength="138" x="31" y="233.3105">Introduction (to topic)</text><a href="Studio1_Analysis/tex/Studio_1_Activity_Diagram.svg" target="_top" title="Studio1_Analysis/tex/Studio_1_Activity_Diagram.svg" xlink:actuate="onRequest" xlink:href="Studio1_Analysis/tex/Studio_1_Activity_Diagram.svg" xlink:show="new" xlink:title="Studio1_Analysis/tex/Studio_1_Activity_Diagram.svg" xlink:type="simple"><text fill="#0000FF" font-family="sans-serif" font-size="12" lengthAdjust="spacing" text-decoration="underline" textLength="317" x="31" y="247.2793">Studio1_Analysis/tex/Studio_1_Activity_Diagram.svg</text></a><rect fill="#F0F8FF" filter="url(#f11xmgmwx7q7y4)" height="33.9688" rx="12.5" ry="12.5" style="stroke:#FFFFFF;stroke-width:1.5;" width="137" x="121" y="280.1094"/><text fill="#000000" font-family="sans-serif" font-size="12" lengthAdjust="spacing" textLength="117" x="131" y="301.248">Critical Information</text><rect fill="#F0F8FF" filter="url(#f11xmgmwx7q7y4)" height="33.9688" rx="12.5" ry="12.5" style="stroke:#FFFFFF;stroke-width:1.5;" width="106" x="136.5" y="334.0781"/><text fill="#000000" font-family="sans-serif" font-size="12" lengthAdjust="spacing" textLength="86" x="146.5" y="355.2168">Infrastructure</text><rect fill="#F0F8FF" filter="url(#f11xmgmwx7q7y4)" height="33.9688" rx="12.5" ry="12.5" style="stroke:#FFFFFF;stroke-width:1.5;" width="129" x="125" y="388.0469"/><text fill="#000000" font-family="sans-serif" font-size="12" lengthAdjust="spacing" textLength="109" x="135" y="409.1855">Thesis statement</text><rect fill="#F0F8FF" filter="url(#f11xmgmwx7q7y4)" height="33.9688" rx="12.5" ry="12.5" style="stroke:#FFFFFF;stroke-width:1.5;" width="112" x="133.5" y="442.0156"/><text fill="#000000" font-family="sans-serif" font-size="12" lengthAdjust="spacing" textLength="92" x="143.5" y="463.1543">Subject Matter</text><rect fill="#F0F8FF" filter="url(#f11xmgmwx7q7y4)" height="33.9688" rx="12.5" ry="12.5" style="stroke:#FFFFFF;stroke-width:1.5;" width="85" x="147" y="495.9844"/><text fill="#000000" font-family="sans-serif" font-size="12" lengthAdjust="spacing" textLength="65" x="157" y="517.123">Exclusions</text><rect fill="#FFFFFF" filter="url(#f11xmgmwx7q7y4)" height="459.8438" style="stroke:#FFFFFF;stroke-width:2.0;" width="202" x="88.5" y="551.9531"/><path d="M137.5,551.9531 L137.5,561.25 L127.5,571.25 L88.5,571.25 " fill="none" style="stroke:#FFFFFF;stroke-width:2.0;"/><text fill="#000000" font-family="sans-serif" font-size="14" font-weight="bold" lengthAdjust="spacing" textLength="39" x="91.5" y="565.9482">Body</text><rect fill="#FFFFFF" filter="url(#f11xmgmwx7q7y4)" height="110.2031" style="stroke:#FFFFFF;stroke-width:2.0;" width="163" x="108" y="581.25"/><path d="M197,581.25 L197,590.5469 L187,600.5469 L108,600.5469 " fill="none" style="stroke:#FFFFFF;stroke-width:2.0;"/><text fill="#000000" font-family="sans-serif" font-size="14" lengthAdjust="spacing" textLength="79" x="111" y="595.2451">Paragraph1</text><rect fill="#F0F8FF" filter="url(#f11xmgmwx7q7y4)" height="61.9063" rx="12.5" ry="12.5" style="stroke:#FFFFFF;stroke-width:1.5;" width="143" x="118" y="617.5469"/><text fill="#000000" font-family="sans-serif" font-size="12" font-weight="bold" lengthAdjust="spacing" textLength="108" x="128" y="638.6855">Topic Sentence</text><text fill="#000000" font-family="sans-serif" font-size="12" lengthAdjust="spacing" textLength="123" x="128" y="652.6543">Everything relies on</text><text fill="#000000" font-family="sans-serif" font-size="12" lengthAdjust="spacing" textLength="111" x="128" y="666.623">the infrastructure</text><rect fill="#FFFFFF" filter="url(#f11xmgmwx7q7y4)" height="124.1719" style="stroke:#FFFFFF;stroke-width:2.0;" width="182" x="98.5" y="701.4531"/><path d="M187.5,701.4531 L187.5,710.75 L177.5,720.75 L98.5,720.75 " fill="none" style="stroke:#FFFFFF;stroke-width:2.0;"/><text fill="#000000" font-family="sans-serif" font-size="14" lengthAdjust="spacing" textLength="79" x="101.5" y="715.4482">Paragraph2</text><rect fill="#F0F8FF" filter="url(#f11xmgmwx7q7y4)" height="75.875" rx="12.5" ry="12.5" style="stroke:#FFFFFF;stroke-width:1.5;" width="162" x="108.5" y="737.75"/><text fill="#000000" font-family="sans-serif" font-size="12" font-weight="bold" lengthAdjust="spacing" textLength="108" x="118.5" y="758.8887">Topic Sentence</text><text fill="#000000" font-family="sans-serif" font-size="12" lengthAdjust="spacing" textLength="137" x="118.5" y="772.8574">Holistic approach and</text><text fill="#000000" font-family="sans-serif" font-size="12" lengthAdjust="spacing" textLength="142" x="118.5" y="786.8262">extensive collatoration</text><text fill="#000000" font-family="sans-serif" font-size="12" lengthAdjust="spacing" textLength="67" x="118.5" y="800.7949">is required</text><rect fill="#FFFFFF" filter="url(#f11xmgmwx7q7y4)" height="96.2344" style="stroke:#FFFFFF;stroke-width:2.0;" width="148" x="115.5" y="835.625"/><path d="M204.5,835.625 L204.5,844.9219 L194.5,854.9219 L115.5,854.9219 " fill="none" style="stroke:#FFFFFF;stroke-width:2.0;"/><text fill="#000000" font-family="sans-serif" font-size="14" lengthAdjust="spacing" textLength="79" x="118.5" y="849.6201">Paragraph2</text><rect fill="#F0F8FF" filter="url(#f11xmgmwx7q7y4)" height="47.9375" rx="12.5" ry="12.5" style="stroke:#FFFFFF;stroke-width:1.5;" width="128" x="125.5" y="871.9219"/><text fill="#000000" font-family="sans-serif" font-size="12" font-weight="bold" lengthAdjust="spacing" textLength="108" x="135.5" y="893.0605">Topic Sentence</text><text fill="#000000" font-family="sans-serif" font-size="12" lengthAdjust="spacing" textLength="107" x="135.5" y="907.0293">The case of trust</text><rect fill="#F0F8FF" filter="url(#f11xmgmwx7q7y4)" height="47.9375" rx="12.5" ry="12.5" style="stroke:#FFFFFF;stroke-width:1.5;" width="149" x="115" y="951.8594"/><text fill="#000000" font-family="sans-serif" font-size="12" lengthAdjust="spacing" textLength="39" x="125" y="972.998">This is</text><text fill="#000000" font-family="sans-serif" font-size="12" lengthAdjust="spacing" textLength="125" x="129" y="986.9668">a ratherlengthy text</text><ellipse cx="189.5" cy="1041.7969" fill="#FFFFFF" filter="url(#f11xmgmwx7q7y4)" rx="10" ry="10" style="stroke:#008000;stroke-width:1.5;"/><line style="stroke:#008000;stroke-width:2.5;" x1="183.3128" x2="195.6872" y1="1035.6097" y2="1047.9841"/><line style="stroke:#008000;stroke-width:2.5;" x1="195.6872" x2="183.3128" y1="1035.6097" y2="1047.9841"/><line style="stroke:#4169E1;stroke-width:1.5;" x1="189.5" x2="189.5" y1="124.2344" y2="144.2344"/><polygon fill="#4169E1" points="185.5,134.2344,189.5,144.2344,193.5,134.2344,189.5,138.2344" style="stroke:#4169E1;stroke-width:1.0;"/><line style="stroke:#4169E1;stroke-width:1.5;" x1="189.5" x2="189.5" y1="192.1719" y2="212.1719"/><polygon fill="#4169E1" points="185.5,202.1719,189.5,212.1719,193.5,202.1719,189.5,206.1719" style="stroke:#4169E1;stroke-width:1.0;"/><line style="stroke:#4169E1;stroke-width:1.5;" x1="189.5" x2="189.5" y1="260.1094" y2="280.1094"/><polygon fill="#4169E1" points="185.5,270.1094,189.5,280.1094,193.5,270.1094,189.5,274.1094" style="stroke:#4169E1;stroke-width:1.0;"/><line style="stroke:#4169E1;stroke-width:1.5;" x1="189.5" x2="189.5" y1="314.0781" y2="334.0781"/><polygon fill="#4169E1" points="185.5,324.0781,189.5,334.0781,193.5,324.0781,189.5,328.0781" style="stroke:#4169E1;stroke-width:1.0;"/><line style="stroke:#4169E1;stroke-width:1.5;" x1="189.5" x2="189.5" y1="368.0469" y2="388.0469"/><polygon fill="#4169E1" points="185.5,378.0469,189.5,388.0469,193.5,378.0469,189.5,382.0469" style="stroke:#4169E1;stroke-width:1.0;"/><line style="stroke:#4169E1;stroke-width:1.5;" x1="189.5" x2="189.5" y1="422.0156" y2="442.0156"/><polygon fill="#4169E1" points="185.5,432.0156,189.5,442.0156,193.5,432.0156,189.5,436.0156" style="stroke:#4169E1;stroke-width:1.0;"/><line style="stroke:#4169E1;stroke-width:1.5;" x1="189.5" x2="189.5" y1="475.9844" y2="495.9844"/><polygon fill="#4169E1" points="185.5,485.9844,189.5,495.9844,193.5,485.9844,189.5,489.9844" style="stroke:#4169E1;stroke-width:1.0;"/><line style="stroke:#4169E1;stroke-width:1.5;" x1="189.5" x2="189.5" y1="30" y2="76.2969"/><polygon fill="#4169E1" points="185.5,66.2969,189.5,76.2969,193.5,66.2969,189.5,70.2969" style="stroke:#4169E1;stroke-width:1.0;"/><line style="stroke:#4169E1;stroke-width:1.5;" x1="189.5" x2="189.5" y1="679.4531" y2="737.75"/><polygon fill="#4169E1" points="185.5,727.75,189.5,737.75,193.5,727.75,189.5,731.75" style="stroke:#4169E1;stroke-width:1.0;"/><line style="stroke:#4169E1;stroke-width:1.5;" x1="189.5" x2="189.5" y1="813.625" y2="871.9219"/><polygon fill="#4169E1" points="185.5,861.9219,189.5,871.9219,193.5,861.9219,189.5,865.9219" style="stroke:#4169E1;stroke-width:1.0;"/><line style="stroke:#4169E1;stroke-width:1.5;" x1="189.5" x2="189.5" y1="919.8594" y2="951.8594"/><polygon fill="#4169E1" points="185.5,941.8594,189.5,951.8594,193.5,941.8594,189.5,945.8594" style="stroke:#4169E1;stroke-width:1.0;"/><line style="stroke:#4169E1;stroke-width:1.5;" x1="189.5" x2="189.5" y1="529.9531" y2="617.5469"/><polygon fill="#4169E1" points="185.5,607.5469,189.5,617.5469,193.5,607.5469,189.5,611.5469" style="stroke:#4169E1;stroke-width:1.0;"/><line style="stroke:#4169E1;stroke-width:1.5;" x1="189.5" x2="189.5" y1="999.7969" y2="1031.7969"/><polygon fill="#4169E1" points="185.5,1021.7969,189.5,1031.7969,193.5,1021.7969,189.5,1025.7969" style="stroke:#4169E1;stroke-width:1.0;"/><!--MD5=[ed49348651b15356ad805f1399b73e1d]
@startuml Studio_1_Activity_Diagram

skinparam ActivityFontColor automatic
skinparam ActivityBackgroundColor #AliceBlue
skinparam ActivityBorderColor #transparent
skinparam ActivityStartColor #Blue
skinparam ActivityEndColor #Green
skinparam PartitionBorderColor #white
skinparam ArrowColor #RoyalBlue

start

partition **introduction** {
    :Document information
    [[Studio1_Analysis/tex/Studio_1_Activity_Diagram.svg]];
    :Another Document
    [[~/Studies/Studio1_Analysis/document.pdf]];
    :Introduction (to topic)
    [[Studio1_Analysis/tex/Studio_1_Activity_Diagram.svg]];
    :Critical Information;
    :Infrastructure;
    :Thesis statement;
    :Subject Matter;
    :Exclusions;
}

partition **Body** {
    partition Paragraph1 {
        :**Topic Sentence**
        Everything relies on
        the infrastructure;

    }
    
    partition Paragraph2 {
        :**Topic Sentence**
        Holistic approach and
        extensive collatoration
        is required;
    }
    
    partition Paragraph2 {
        :**Topic Sentence**
        The case of trust;
    }
    
    :This is
     a ratherlengthy text;
}

end

@enduml

PlantUML version 1.2021.00(Sun Jan 10 11:25:05 CET 2021)
(GPL source distribution)
Java Runtime: OpenJDK Runtime Environment
JVM: OpenJDK 64-Bit Server VM
Default Encoding: UTF-8
Language: en
Country: null
--></g></svg>