<?xml version="1.0" encoding="UTF-8" standalone="no"?><svg xmlns="http://www.w3.org/2000/svg" xmlns:xlink="http://www.w3.org/1999/xlink" contentScriptType="application/ecmascript" contentStyleType="text/css" height="986px" preserveAspectRatio="none" style="width:342px;height:986px;" version="1.1" viewBox="0 0 342 986" width="342px" zoomAndPan="magnify"><defs><filter height="300%" id="f1gajxi4lj4a0a" width="300%" x="-1" y="-1"><feGaussianBlur result="blurOut" stdDeviation="2.0"/><feColorMatrix in="blurOut" result="blurOut2" type="matrix" values="0 0 0 0 0 0 0 0 0 0 0 0 0 0 0 0 0 0 .4 0"/><feOffset dx="4.0" dy="4.0" in="blurOut2" result="blurOut3"/><feBlend in="SourceGraphic" in2="blurOut3" mode="normal"/></filter></defs><g><ellipse cx="168" cy="20" fill="#0000FF" filter="url(#f1gajxi4lj4a0a)" rx="10" ry="10" style="stroke:none;stroke-width:1.0;"/><rect fill="#FFFFFF" filter="url(#f1gajxi4lj4a0a)" height="420.0469" style="stroke:#FFFFFF;stroke-width:2.0;" width="314" x="11" y="40"/><path d="M117,40 L117,49.2969 L107,59.2969 L11,59.2969 " fill="none" style="stroke:#FFFFFF;stroke-width:2.0;"/><text fill="#000000" font-family="sans-serif" font-size="14" font-weight="bold" lengthAdjust="spacing" textLength="96" x="14" y="53.9951">introduction</text><rect fill="#F0F8FF" filter="url(#f1gajxi4lj4a0a)" height="47.9375" rx="12.5" ry="12.5" style="stroke:#FFFFFF;stroke-width:1.5;" width="294" x="21" y="76.2969"/><text fill="#000000" font-family="sans-serif" font-size="12" lengthAdjust="spacing" textLength="139" x="31" y="97.4355">Document information</text><a href="UC1ST1103/Analysis/tex/02_introduction.tex" target="_top" title="UC1ST1103/Analysis/tex/02_introduction.tex" xlink:actuate="onRequest" xlink:href="UC1ST1103/Analysis/tex/02_introduction.tex" xlink:show="new" xlink:title="UC1ST1103/Analysis/tex/02_introduction.tex" xlink:type="simple"><text fill="#0000FF" font-family="sans-serif" font-size="12" lengthAdjust="spacing" text-decoration="underline" textLength="274" x="31" y="111.4043">UC1ST1103/Analysis/tex/02_introduction.tex</text></a><rect fill="#F0F8FF" filter="url(#f1gajxi4lj4a0a)" height="33.9688" rx="12.5" ry="12.5" style="stroke:#FFFFFF;stroke-width:1.5;" width="158" x="89" y="144.2344"/><text fill="#000000" font-family="sans-serif" font-size="12" lengthAdjust="spacing" textLength="138" x="99" y="165.373">Introduction (to topic)</text><rect fill="#F0F8FF" filter="url(#f1gajxi4lj4a0a)" height="33.9688" rx="12.5" ry="12.5" style="stroke:#FFFFFF;stroke-width:1.5;" width="137" x="99.5" y="198.2031"/><text fill="#000000" font-family="sans-serif" font-size="12" lengthAdjust="spacing" textLength="117" x="109.5" y="219.3418">Critical Information</text><rect fill="#F0F8FF" filter="url(#f1gajxi4lj4a0a)" height="33.9688" rx="12.5" ry="12.5" style="stroke:#FFFFFF;stroke-width:1.5;" width="106" x="115" y="252.1719"/><text fill="#000000" font-family="sans-serif" font-size="12" lengthAdjust="spacing" textLength="86" x="125" y="273.3105">Infrastructure</text><rect fill="#F0F8FF" filter="url(#f1gajxi4lj4a0a)" height="33.9688" rx="12.5" ry="12.5" style="stroke:#FFFFFF;stroke-width:1.5;" width="129" x="103.5" y="306.1406"/><text fill="#000000" font-family="sans-serif" font-size="12" lengthAdjust="spacing" textLength="109" x="113.5" y="327.2793">Thesis statement</text><rect fill="#F0F8FF" filter="url(#f1gajxi4lj4a0a)" height="33.9688" rx="12.5" ry="12.5" style="stroke:#FFFFFF;stroke-width:1.5;" width="112" x="112" y="360.1094"/><text fill="#000000" font-family="sans-serif" font-size="12" lengthAdjust="spacing" textLength="92" x="122" y="381.248">Subject Matter</text><rect fill="#F0F8FF" filter="url(#f1gajxi4lj4a0a)" height="33.9688" rx="12.5" ry="12.5" style="stroke:#FFFFFF;stroke-width:1.5;" width="85" x="125.5" y="414.0781"/><text fill="#000000" font-family="sans-serif" font-size="12" lengthAdjust="spacing" textLength="65" x="135.5" y="435.2168">Exclusions</text><rect fill="#FFFFFF" filter="url(#f1gajxi4lj4a0a)" height="459.8438" style="stroke:#FFFFFF;stroke-width:2.0;" width="202" x="67" y="470.0469"/><path d="M116,470.0469 L116,479.3438 L106,489.3438 L67,489.3438 " fill="none" style="stroke:#FFFFFF;stroke-width:2.0;"/><text fill="#000000" font-family="sans-serif" font-size="14" font-weight="bold" lengthAdjust="spacing" textLength="39" x="70" y="484.042">Body</text><rect fill="#FFFFFF" filter="url(#f1gajxi4lj4a0a)" height="110.2031" style="stroke:#FFFFFF;stroke-width:2.0;" width="163" x="86.5" y="499.3438"/><path d="M175.5,499.3438 L175.5,508.6406 L165.5,518.6406 L86.5,518.6406 " fill="none" style="stroke:#FFFFFF;stroke-width:2.0;"/><text fill="#000000" font-family="sans-serif" font-size="14" lengthAdjust="spacing" textLength="79" x="89.5" y="513.3389">Paragraph1</text><rect fill="#F0F8FF" filter="url(#f1gajxi4lj4a0a)" height="61.9063" rx="12.5" ry="12.5" style="stroke:#FFFFFF;stroke-width:1.5;" width="143" x="96.5" y="535.6406"/><text fill="#000000" font-family="sans-serif" font-size="12" font-weight="bold" lengthAdjust="spacing" textLength="108" x="106.5" y="556.7793">Topic Sentence</text><text fill="#000000" font-family="sans-serif" font-size="12" lengthAdjust="spacing" textLength="123" x="106.5" y="570.748">Everything relies on</text><text fill="#000000" font-family="sans-serif" font-size="12" lengthAdjust="spacing" textLength="111" x="106.5" y="584.7168">the infrastructure</text><rect fill="#FFFFFF" filter="url(#f1gajxi4lj4a0a)" height="124.1719" style="stroke:#FFFFFF;stroke-width:2.0;" width="182" x="77" y="619.5469"/><path d="M166,619.5469 L166,628.8438 L156,638.8438 L77,638.8438 " fill="none" style="stroke:#FFFFFF;stroke-width:2.0;"/><text fill="#000000" font-family="sans-serif" font-size="14" lengthAdjust="spacing" textLength="79" x="80" y="633.542">Paragraph2</text><rect fill="#F0F8FF" filter="url(#f1gajxi4lj4a0a)" height="75.875" rx="12.5" ry="12.5" style="stroke:#FFFFFF;stroke-width:1.5;" width="162" x="87" y="655.8438"/><text fill="#000000" font-family="sans-serif" font-size="12" font-weight="bold" lengthAdjust="spacing" textLength="108" x="97" y="676.9824">Topic Sentence</text><text fill="#000000" font-family="sans-serif" font-size="12" lengthAdjust="spacing" textLength="137" x="97" y="690.9512">Holistic approach and</text><text fill="#000000" font-family="sans-serif" font-size="12" lengthAdjust="spacing" textLength="142" x="97" y="704.9199">extensive collatoration</text><text fill="#000000" font-family="sans-serif" font-size="12" lengthAdjust="spacing" textLength="67" x="97" y="718.8887">is required</text><rect fill="#FFFFFF" filter="url(#f1gajxi4lj4a0a)" height="96.2344" style="stroke:#FFFFFF;stroke-width:2.0;" width="148" x="94" y="753.7188"/><path d="M183,753.7188 L183,763.0156 L173,773.0156 L94,773.0156 " fill="none" style="stroke:#FFFFFF;stroke-width:2.0;"/><text fill="#000000" font-family="sans-serif" font-size="14" lengthAdjust="spacing" textLength="79" x="97" y="767.7139">Paragraph2</text><rect fill="#F0F8FF" filter="url(#f1gajxi4lj4a0a)" height="47.9375" rx="12.5" ry="12.5" style="stroke:#FFFFFF;stroke-width:1.5;" width="128" x="104" y="790.0156"/><text fill="#000000" font-family="sans-serif" font-size="12" font-weight="bold" lengthAdjust="spacing" textLength="108" x="114" y="811.1543">Topic Sentence</text><text fill="#000000" font-family="sans-serif" font-size="12" lengthAdjust="spacing" textLength="107" x="114" y="825.123">The case of trust</text><rect fill="#F0F8FF" filter="url(#f1gajxi4lj4a0a)" height="47.9375" rx="12.5" ry="12.5" style="stroke:#FFFFFF;stroke-width:1.5;" width="149" x="93.5" y="869.9531"/><text fill="#000000" font-family="sans-serif" font-size="12" lengthAdjust="spacing" textLength="39" x="103.5" y="891.0918">This is</text><text fill="#000000" font-family="sans-serif" font-size="12" lengthAdjust="spacing" textLength="125" x="107.5" y="905.0605">a ratherlengthy text</text><ellipse cx="168" cy="959.8906" fill="#FFFFFF" filter="url(#f1gajxi4lj4a0a)" rx="10" ry="10" style="stroke:#008000;stroke-width:1.5;"/><line style="stroke:#008000;stroke-width:2.5;" x1="161.8128" x2="174.1872" y1="953.7034" y2="966.0778"/><line style="stroke:#008000;stroke-width:2.5;" x1="174.1872" x2="161.8128" y1="953.7034" y2="966.0778"/><line style="stroke:#4169E1;stroke-width:1.5;" x1="168" x2="168" y1="124.2344" y2="144.2344"/><polygon fill="#4169E1" points="164,134.2344,168,144.2344,172,134.2344,168,138.2344" style="stroke:#4169E1;stroke-width:1.0;"/><line style="stroke:#4169E1;stroke-width:1.5;" x1="168" x2="168" y1="178.2031" y2="198.2031"/><polygon fill="#4169E1" points="164,188.2031,168,198.2031,172,188.2031,168,192.2031" style="stroke:#4169E1;stroke-width:1.0;"/><line style="stroke:#4169E1;stroke-width:1.5;" x1="168" x2="168" y1="232.1719" y2="252.1719"/><polygon fill="#4169E1" points="164,242.1719,168,252.1719,172,242.1719,168,246.1719" style="stroke:#4169E1;stroke-width:1.0;"/><line style="stroke:#4169E1;stroke-width:1.5;" x1="168" x2="168" y1="286.1406" y2="306.1406"/><polygon fill="#4169E1" points="164,296.1406,168,306.1406,172,296.1406,168,300.1406" style="stroke:#4169E1;stroke-width:1.0;"/><line style="stroke:#4169E1;stroke-width:1.5;" x1="168" x2="168" y1="340.1094" y2="360.1094"/><polygon fill="#4169E1" points="164,350.1094,168,360.1094,172,350.1094,168,354.1094" style="stroke:#4169E1;stroke-width:1.0;"/><line style="stroke:#4169E1;stroke-width:1.5;" x1="168" x2="168" y1="394.0781" y2="414.0781"/><polygon fill="#4169E1" points="164,404.0781,168,414.0781,172,404.0781,168,408.0781" style="stroke:#4169E1;stroke-width:1.0;"/><line style="stroke:#4169E1;stroke-width:1.5;" x1="168" x2="168" y1="30" y2="76.2969"/><polygon fill="#4169E1" points="164,66.2969,168,76.2969,172,66.2969,168,70.2969" style="stroke:#4169E1;stroke-width:1.0;"/><line style="stroke:#4169E1;stroke-width:1.5;" x1="168" x2="168" y1="597.5469" y2="655.8438"/><polygon fill="#4169E1" points="164,645.8438,168,655.8438,172,645.8438,168,649.8438" style="stroke:#4169E1;stroke-width:1.0;"/><line style="stroke:#4169E1;stroke-width:1.5;" x1="168" x2="168" y1="731.7188" y2="790.0156"/><polygon fill="#4169E1" points="164,780.0156,168,790.0156,172,780.0156,168,784.0156" style="stroke:#4169E1;stroke-width:1.0;"/><line style="stroke:#4169E1;stroke-width:1.5;" x1="168" x2="168" y1="837.9531" y2="869.9531"/><polygon fill="#4169E1" points="164,859.9531,168,869.9531,172,859.9531,168,863.9531" style="stroke:#4169E1;stroke-width:1.0;"/><line style="stroke:#4169E1;stroke-width:1.5;" x1="168" x2="168" y1="448.0469" y2="535.6406"/><polygon fill="#4169E1" points="164,525.6406,168,535.6406,172,525.6406,168,529.6406" style="stroke:#4169E1;stroke-width:1.0;"/><line style="stroke:#4169E1;stroke-width:1.5;" x1="168" x2="168" y1="917.8906" y2="949.8906"/><polygon fill="#4169E1" points="164,939.8906,168,949.8906,172,939.8906,168,943.8906" style="stroke:#4169E1;stroke-width:1.0;"/><!--MD5=[012d75d2e16b92c4c16fb918e2889f9a]
@startuml Studio_1_Activity_Diagram

skinparam ActivityFontColor automatic
skinparam ActivityBackgroundColor #AliceBlue
skinparam ActivityBorderColor #transparent
skinparam ActivityStartColor #Blue
skinparam ActivityEndColor #Green
skinparam PartitionBorderColor #white
skinparam ArrowColor #RoyalBlue

start

partition **introduction** {
    :Document information
    [[UC1ST1103/Analysis/tex/02_introduction.tex]];
    :Introduction (to topic);
    :Critical Information;
    :Infrastructure;
    :Thesis statement;
    :Subject Matter;
    :Exclusions;
}

partition **Body** {
    partition Paragraph1 {
        :**Topic Sentence**
        Everything relies on
        the infrastructure;

    }
    
    partition Paragraph2 {
        :**Topic Sentence**
        Holistic approach and
        extensive collatoration
        is required;
    }
    
    partition Paragraph2 {
        :**Topic Sentence**
        The case of trust;
    }
    
    :This is
     a ratherlengthy text;
}

end

@enduml

PlantUML version 1.2021.00(Sun Jan 10 11:25:05 CET 2021)
(GPL source distribution)
Java Runtime: OpenJDK Runtime Environment
JVM: OpenJDK 64-Bit Server VM
Default Encoding: UTF-8
Language: en
Country: null
--></g></svg>