<?xml version="1.0" encoding="UTF-8" standalone="no"?><svg xmlns="http://www.w3.org/2000/svg" xmlns:xlink="http://www.w3.org/1999/xlink" contentScriptType="application/ecmascript" contentStyleType="text/css" height="1068px" preserveAspectRatio="none" style="width:254px;height:1068px;" version="1.1" viewBox="0 0 254 1068" width="254px" zoomAndPan="magnify"><defs><filter height="300%" id="f19fdegcugojmp" width="300%" x="-1" y="-1"><feGaussianBlur result="blurOut" stdDeviation="2.0"/><feColorMatrix in="blurOut" result="blurOut2" type="matrix" values="0 0 0 0 0 0 0 0 0 0 0 0 0 0 0 0 0 0 .4 0"/><feOffset dx="4.0" dy="4.0" in="blurOut2" result="blurOut3"/><feBlend in="SourceGraphic" in2="blurOut3" mode="normal"/></filter></defs><g><ellipse cx="124" cy="20" fill="#0000FF" filter="url(#f19fdegcugojmp)" rx="10" ry="10" style="stroke:none;stroke-width:1.0;"/><rect fill="#FFFFFF" filter="url(#f19fdegcugojmp)" height="501.9531" style="stroke:#FFFFFF;stroke-width:2.0;" width="226" x="11" y="40"/><path d="M117,40 L117,49.2969 L107,59.2969 L11,59.2969 " fill="none" style="stroke:#FFFFFF;stroke-width:2.0;"/><text fill="#000000" font-family="sans-serif" font-size="14" font-weight="bold" lengthAdjust="spacing" textLength="96" x="14" y="53.9951">introduction</text><rect fill="#F0F8FF" filter="url(#f19fdegcugojmp)" height="47.9375" rx="12.5" ry="12.5" style="stroke:#FFFFFF;stroke-width:1.5;" width="159" x="44.5" y="76.2969"/><text fill="#000000" font-family="sans-serif" font-size="12" lengthAdjust="spacing" textLength="139" x="54.5" y="97.4355">Document information</text><a href="../README.md" target="_top" title="../README.md" xlink:actuate="onRequest" xlink:href="../README.md" xlink:show="new" xlink:title="../README.md" xlink:type="simple"><text fill="#0000FF" font-family="sans-serif" font-size="12" lengthAdjust="spacing" text-decoration="underline" textLength="86" x="54.5" y="111.4043">../README.md</text></a><rect fill="#F0F8FF" filter="url(#f19fdegcugojmp)" height="47.9375" rx="12.5" ry="12.5" style="stroke:#FFFFFF;stroke-width:1.5;" width="138" x="55" y="144.2344"/><text fill="#000000" font-family="sans-serif" font-size="12" lengthAdjust="spacing" textLength="118" x="65" y="165.373">Another Document</text><a href="../document.pdf" target="_top" title="../document.pdf" xlink:actuate="onRequest" xlink:href="../document.pdf" xlink:show="new" xlink:title="../document.pdf" xlink:type="simple"><text fill="#0000FF" font-family="sans-serif" font-size="12" lengthAdjust="spacing" text-decoration="underline" textLength="99" x="65" y="179.3418">../document.pdf</text></a><rect fill="#F0F8FF" filter="url(#f19fdegcugojmp)" height="47.9375" rx="12.5" ry="12.5" style="stroke:#FFFFFF;stroke-width:1.5;" width="206" x="21" y="212.1719"/><text fill="#000000" font-family="sans-serif" font-size="12" lengthAdjust="spacing" textLength="138" x="31" y="233.3105">Introduction (to topic)</text><a href="Studio_1_Activity_Diagram.svg" target="_top" title="Studio_1_Activity_Diagram.svg" xlink:actuate="onRequest" xlink:href="Studio_1_Activity_Diagram.svg" xlink:show="new" xlink:title="Studio_1_Activity_Diagram.svg" xlink:type="simple"><text fill="#0000FF" font-family="sans-serif" font-size="12" lengthAdjust="spacing" text-decoration="underline" textLength="186" x="31" y="247.2793">Studio_1_Activity_Diagram.svg</text></a><rect fill="#F0F8FF" filter="url(#f19fdegcugojmp)" height="33.9688" rx="12.5" ry="12.5" style="stroke:#FFFFFF;stroke-width:1.5;" width="137" x="55.5" y="280.1094"/><text fill="#000000" font-family="sans-serif" font-size="12" lengthAdjust="spacing" textLength="117" x="65.5" y="301.248">Critical Information</text><rect fill="#F0F8FF" filter="url(#f19fdegcugojmp)" height="33.9688" rx="12.5" ry="12.5" style="stroke:#FFFFFF;stroke-width:1.5;" width="106" x="71" y="334.0781"/><text fill="#000000" font-family="sans-serif" font-size="12" lengthAdjust="spacing" textLength="86" x="81" y="355.2168">Infrastructure</text><rect fill="#F0F8FF" filter="url(#f19fdegcugojmp)" height="33.9688" rx="12.5" ry="12.5" style="stroke:#FFFFFF;stroke-width:1.5;" width="129" x="59.5" y="388.0469"/><text fill="#000000" font-family="sans-serif" font-size="12" lengthAdjust="spacing" textLength="109" x="69.5" y="409.1855">Thesis statement</text><rect fill="#F0F8FF" filter="url(#f19fdegcugojmp)" height="33.9688" rx="12.5" ry="12.5" style="stroke:#FFFFFF;stroke-width:1.5;" width="112" x="68" y="442.0156"/><text fill="#000000" font-family="sans-serif" font-size="12" lengthAdjust="spacing" textLength="92" x="78" y="463.1543">Subject Matter</text><rect fill="#F0F8FF" filter="url(#f19fdegcugojmp)" height="33.9688" rx="12.5" ry="12.5" style="stroke:#FFFFFF;stroke-width:1.5;" width="85" x="81.5" y="495.9844"/><text fill="#000000" font-family="sans-serif" font-size="12" lengthAdjust="spacing" textLength="65" x="91.5" y="517.123">Exclusions</text><rect fill="#FFFFFF" filter="url(#f19fdegcugojmp)" height="459.8438" style="stroke:#FFFFFF;stroke-width:2.0;" width="202" x="23" y="551.9531"/><path d="M72,551.9531 L72,561.25 L62,571.25 L23,571.25 " fill="none" style="stroke:#FFFFFF;stroke-width:2.0;"/><text fill="#000000" font-family="sans-serif" font-size="14" font-weight="bold" lengthAdjust="spacing" textLength="39" x="26" y="565.9482">Body</text><rect fill="#FFFFFF" filter="url(#f19fdegcugojmp)" height="110.2031" style="stroke:#FFFFFF;stroke-width:2.0;" width="163" x="42.5" y="581.25"/><path d="M131.5,581.25 L131.5,590.5469 L121.5,600.5469 L42.5,600.5469 " fill="none" style="stroke:#FFFFFF;stroke-width:2.0;"/><text fill="#000000" font-family="sans-serif" font-size="14" lengthAdjust="spacing" textLength="79" x="45.5" y="595.2451">Paragraph1</text><rect fill="#F0F8FF" filter="url(#f19fdegcugojmp)" height="61.9063" rx="12.5" ry="12.5" style="stroke:#FFFFFF;stroke-width:1.5;" width="143" x="52.5" y="617.5469"/><text fill="#000000" font-family="sans-serif" font-size="12" font-weight="bold" lengthAdjust="spacing" textLength="108" x="62.5" y="638.6855">Topic Sentence</text><text fill="#000000" font-family="sans-serif" font-size="12" lengthAdjust="spacing" textLength="123" x="62.5" y="652.6543">Everything relies on</text><text fill="#000000" font-family="sans-serif" font-size="12" lengthAdjust="spacing" textLength="111" x="62.5" y="666.623">the infrastructure</text><rect fill="#FFFFFF" filter="url(#f19fdegcugojmp)" height="124.1719" style="stroke:#FFFFFF;stroke-width:2.0;" width="182" x="33" y="701.4531"/><path d="M122,701.4531 L122,710.75 L112,720.75 L33,720.75 " fill="none" style="stroke:#FFFFFF;stroke-width:2.0;"/><text fill="#000000" font-family="sans-serif" font-size="14" lengthAdjust="spacing" textLength="79" x="36" y="715.4482">Paragraph2</text><rect fill="#F0F8FF" filter="url(#f19fdegcugojmp)" height="75.875" rx="12.5" ry="12.5" style="stroke:#FFFFFF;stroke-width:1.5;" width="162" x="43" y="737.75"/><text fill="#000000" font-family="sans-serif" font-size="12" font-weight="bold" lengthAdjust="spacing" textLength="108" x="53" y="758.8887">Topic Sentence</text><text fill="#000000" font-family="sans-serif" font-size="12" lengthAdjust="spacing" textLength="137" x="53" y="772.8574">Holistic approach and</text><text fill="#000000" font-family="sans-serif" font-size="12" lengthAdjust="spacing" textLength="142" x="53" y="786.8262">extensive collatoration</text><text fill="#000000" font-family="sans-serif" font-size="12" lengthAdjust="spacing" textLength="67" x="53" y="800.7949">is required</text><rect fill="#FFFFFF" filter="url(#f19fdegcugojmp)" height="96.2344" style="stroke:#FFFFFF;stroke-width:2.0;" width="148" x="50" y="835.625"/><path d="M139,835.625 L139,844.9219 L129,854.9219 L50,854.9219 " fill="none" style="stroke:#FFFFFF;stroke-width:2.0;"/><text fill="#000000" font-family="sans-serif" font-size="14" lengthAdjust="spacing" textLength="79" x="53" y="849.6201">Paragraph2</text><rect fill="#F0F8FF" filter="url(#f19fdegcugojmp)" height="47.9375" rx="12.5" ry="12.5" style="stroke:#FFFFFF;stroke-width:1.5;" width="128" x="60" y="871.9219"/><text fill="#000000" font-family="sans-serif" font-size="12" font-weight="bold" lengthAdjust="spacing" textLength="108" x="70" y="893.0605">Topic Sentence</text><text fill="#000000" font-family="sans-serif" font-size="12" lengthAdjust="spacing" textLength="107" x="70" y="907.0293">The case of trust</text><rect fill="#F0F8FF" filter="url(#f19fdegcugojmp)" height="47.9375" rx="12.5" ry="12.5" style="stroke:#FFFFFF;stroke-width:1.5;" width="149" x="49.5" y="951.8594"/><text fill="#000000" font-family="sans-serif" font-size="12" lengthAdjust="spacing" textLength="39" x="59.5" y="972.998">This is</text><text fill="#000000" font-family="sans-serif" font-size="12" lengthAdjust="spacing" textLength="125" x="63.5" y="986.9668">a ratherlengthy text</text><ellipse cx="124" cy="1041.7969" fill="#FFFFFF" filter="url(#f19fdegcugojmp)" rx="10" ry="10" style="stroke:#008000;stroke-width:1.5;"/><line style="stroke:#008000;stroke-width:2.5;" x1="117.8128" x2="130.1872" y1="1035.6097" y2="1047.9841"/><line style="stroke:#008000;stroke-width:2.5;" x1="130.1872" x2="117.8128" y1="1035.6097" y2="1047.9841"/><line style="stroke:#4169E1;stroke-width:1.5;" x1="124" x2="124" y1="124.2344" y2="144.2344"/><polygon fill="#4169E1" points="120,134.2344,124,144.2344,128,134.2344,124,138.2344" style="stroke:#4169E1;stroke-width:1.0;"/><line style="stroke:#4169E1;stroke-width:1.5;" x1="124" x2="124" y1="192.1719" y2="212.1719"/><polygon fill="#4169E1" points="120,202.1719,124,212.1719,128,202.1719,124,206.1719" style="stroke:#4169E1;stroke-width:1.0;"/><line style="stroke:#4169E1;stroke-width:1.5;" x1="124" x2="124" y1="260.1094" y2="280.1094"/><polygon fill="#4169E1" points="120,270.1094,124,280.1094,128,270.1094,124,274.1094" style="stroke:#4169E1;stroke-width:1.0;"/><line style="stroke:#4169E1;stroke-width:1.5;" x1="124" x2="124" y1="314.0781" y2="334.0781"/><polygon fill="#4169E1" points="120,324.0781,124,334.0781,128,324.0781,124,328.0781" style="stroke:#4169E1;stroke-width:1.0;"/><line style="stroke:#4169E1;stroke-width:1.5;" x1="124" x2="124" y1="368.0469" y2="388.0469"/><polygon fill="#4169E1" points="120,378.0469,124,388.0469,128,378.0469,124,382.0469" style="stroke:#4169E1;stroke-width:1.0;"/><line style="stroke:#4169E1;stroke-width:1.5;" x1="124" x2="124" y1="422.0156" y2="442.0156"/><polygon fill="#4169E1" points="120,432.0156,124,442.0156,128,432.0156,124,436.0156" style="stroke:#4169E1;stroke-width:1.0;"/><line style="stroke:#4169E1;stroke-width:1.5;" x1="124" x2="124" y1="475.9844" y2="495.9844"/><polygon fill="#4169E1" points="120,485.9844,124,495.9844,128,485.9844,124,489.9844" style="stroke:#4169E1;stroke-width:1.0;"/><line style="stroke:#4169E1;stroke-width:1.5;" x1="124" x2="124" y1="30" y2="76.2969"/><polygon fill="#4169E1" points="120,66.2969,124,76.2969,128,66.2969,124,70.2969" style="stroke:#4169E1;stroke-width:1.0;"/><line style="stroke:#4169E1;stroke-width:1.5;" x1="124" x2="124" y1="679.4531" y2="737.75"/><polygon fill="#4169E1" points="120,727.75,124,737.75,128,727.75,124,731.75" style="stroke:#4169E1;stroke-width:1.0;"/><line style="stroke:#4169E1;stroke-width:1.5;" x1="124" x2="124" y1="813.625" y2="871.9219"/><polygon fill="#4169E1" points="120,861.9219,124,871.9219,128,861.9219,124,865.9219" style="stroke:#4169E1;stroke-width:1.0;"/><line style="stroke:#4169E1;stroke-width:1.5;" x1="124" x2="124" y1="919.8594" y2="951.8594"/><polygon fill="#4169E1" points="120,941.8594,124,951.8594,128,941.8594,124,945.8594" style="stroke:#4169E1;stroke-width:1.0;"/><line style="stroke:#4169E1;stroke-width:1.5;" x1="124" x2="124" y1="529.9531" y2="617.5469"/><polygon fill="#4169E1" points="120,607.5469,124,617.5469,128,607.5469,124,611.5469" style="stroke:#4169E1;stroke-width:1.0;"/><line style="stroke:#4169E1;stroke-width:1.5;" x1="124" x2="124" y1="999.7969" y2="1031.7969"/><polygon fill="#4169E1" points="120,1021.7969,124,1031.7969,128,1021.7969,124,1025.7969" style="stroke:#4169E1;stroke-width:1.0;"/><!--MD5=[1c50cb461c6b279ab67f010a8f84512c]
@startuml Studio_1_Activity_Diagram

skinparam ActivityFontColor automatic
skinparam ActivityBackgroundColor #AliceBlue
skinparam ActivityBorderColor #transparent
skinparam ActivityStartColor #Blue
skinparam ActivityEndColor #Green
skinparam PartitionBorderColor #white
skinparam ArrowColor #RoyalBlue

start

partition **introduction** {
    :Document information
    [[../README.md]];
    :Another Document
    [[../document.pdf]];
    :Introduction (to topic)
    [[Studio_1_Activity_Diagram.svg]];
    :Critical Information;
    :Infrastructure;
    :Thesis statement;
    :Subject Matter;
    :Exclusions;
}

partition **Body** {
    partition Paragraph1 {
        :**Topic Sentence**
        Everything relies on
        the infrastructure;

    }
    
    partition Paragraph2 {
        :**Topic Sentence**
        Holistic approach and
        extensive collatoration
        is required;
    }
    
    partition Paragraph2 {
        :**Topic Sentence**
        The case of trust;
    }
    
    :This is
     a ratherlengthy text;
}

end

@enduml

PlantUML version 1.2021.00(Sun Jan 10 11:25:05 CET 2021)
(GPL source distribution)
Java Runtime: OpenJDK Runtime Environment
JVM: OpenJDK 64-Bit Server VM
Default Encoding: UTF-8
Language: en
Country: null
--></g></svg>