<?xml version="1.0" encoding="UTF-8" standalone="no"?><svg xmlns="http://www.w3.org/2000/svg" xmlns:xlink="http://www.w3.org/1999/xlink" contentScriptType="application/ecmascript" contentStyleType="text/css" height="1054px" preserveAspectRatio="none" style="width:342px;height:1054px;" version="1.1" viewBox="0 0 342 1054" width="342px" zoomAndPan="magnify"><defs><filter height="300%" id="fw7rasxmgpi2l" width="300%" x="-1" y="-1"><feGaussianBlur result="blurOut" stdDeviation="2.0"/><feColorMatrix in="blurOut" result="blurOut2" type="matrix" values="0 0 0 0 0 0 0 0 0 0 0 0 0 0 0 0 0 0 .4 0"/><feOffset dx="4.0" dy="4.0" in="blurOut2" result="blurOut3"/><feBlend in="SourceGraphic" in2="blurOut3" mode="normal"/></filter></defs><g><ellipse cx="168" cy="20" fill="#0000FF" filter="url(#fw7rasxmgpi2l)" rx="10" ry="10" style="stroke:none;stroke-width:1.0;"/><rect fill="#FFFFFF" filter="url(#fw7rasxmgpi2l)" height="487.9844" style="stroke:#FFFFFF;stroke-width:2.0;" width="314" x="11" y="40"/><path d="M117,40 L117,49.2969 L107,59.2969 L11,59.2969 " fill="none" style="stroke:#FFFFFF;stroke-width:2.0;"/><text fill="#000000" font-family="sans-serif" font-size="14" font-weight="bold" lengthAdjust="spacing" textLength="96" x="14" y="53.9951">introduction</text><rect fill="#F0F8FF" filter="url(#fw7rasxmgpi2l)" height="47.9375" rx="12.5" ry="12.5" style="stroke:#FFFFFF;stroke-width:1.5;" width="294" x="21" y="76.2969"/><text fill="#000000" font-family="sans-serif" font-size="12" lengthAdjust="spacing" textLength="139" x="31" y="97.4355">Document information</text><a href="UC1ST1103/Analysis/tex/02_introduction.tex" target="_top" title="UC1ST1103/Analysis/tex/02_introduction.tex" xlink:actuate="onRequest" xlink:href="UC1ST1103/Analysis/tex/02_introduction.tex" xlink:show="new" xlink:title="UC1ST1103/Analysis/tex/02_introduction.tex" xlink:type="simple"><text fill="#0000FF" font-family="sans-serif" font-size="12" lengthAdjust="spacing" text-decoration="underline" textLength="274" x="31" y="111.4043">UC1ST1103/Analysis/tex/02_introduction.tex</text></a><rect fill="#F0F8FF" filter="url(#fw7rasxmgpi2l)" height="47.9375" rx="12.5" ry="12.5" style="stroke:#FFFFFF;stroke-width:1.5;" width="237" x="49.5" y="144.2344"/><text fill="#000000" font-family="sans-serif" font-size="12" lengthAdjust="spacing" textLength="118" x="59.5" y="165.373">Another Document</text><a href="UC1ST1103/Analysis/document.pdf" target="_top" title="UC1ST1103/Analysis/document.pdf" xlink:actuate="onRequest" xlink:href="UC1ST1103/Analysis/document.pdf" xlink:show="new" xlink:title="UC1ST1103/Analysis/document.pdf" xlink:type="simple"><text fill="#0000FF" font-family="sans-serif" font-size="12" lengthAdjust="spacing" text-decoration="underline" textLength="217" x="59.5" y="179.3418">UC1ST1103/Analysis/document.pdf</text></a><rect fill="#F0F8FF" filter="url(#fw7rasxmgpi2l)" height="33.9688" rx="12.5" ry="12.5" style="stroke:#FFFFFF;stroke-width:1.5;" width="158" x="89" y="212.1719"/><text fill="#000000" font-family="sans-serif" font-size="12" lengthAdjust="spacing" textLength="138" x="99" y="233.3105">Introduction (to topic)</text><rect fill="#F0F8FF" filter="url(#fw7rasxmgpi2l)" height="33.9688" rx="12.5" ry="12.5" style="stroke:#FFFFFF;stroke-width:1.5;" width="137" x="99.5" y="266.1406"/><text fill="#000000" font-family="sans-serif" font-size="12" lengthAdjust="spacing" textLength="117" x="109.5" y="287.2793">Critical Information</text><rect fill="#F0F8FF" filter="url(#fw7rasxmgpi2l)" height="33.9688" rx="12.5" ry="12.5" style="stroke:#FFFFFF;stroke-width:1.5;" width="106" x="115" y="320.1094"/><text fill="#000000" font-family="sans-serif" font-size="12" lengthAdjust="spacing" textLength="86" x="125" y="341.248">Infrastructure</text><rect fill="#F0F8FF" filter="url(#fw7rasxmgpi2l)" height="33.9688" rx="12.5" ry="12.5" style="stroke:#FFFFFF;stroke-width:1.5;" width="129" x="103.5" y="374.0781"/><text fill="#000000" font-family="sans-serif" font-size="12" lengthAdjust="spacing" textLength="109" x="113.5" y="395.2168">Thesis statement</text><rect fill="#F0F8FF" filter="url(#fw7rasxmgpi2l)" height="33.9688" rx="12.5" ry="12.5" style="stroke:#FFFFFF;stroke-width:1.5;" width="112" x="112" y="428.0469"/><text fill="#000000" font-family="sans-serif" font-size="12" lengthAdjust="spacing" textLength="92" x="122" y="449.1855">Subject Matter</text><rect fill="#F0F8FF" filter="url(#fw7rasxmgpi2l)" height="33.9688" rx="12.5" ry="12.5" style="stroke:#FFFFFF;stroke-width:1.5;" width="85" x="125.5" y="482.0156"/><text fill="#000000" font-family="sans-serif" font-size="12" lengthAdjust="spacing" textLength="65" x="135.5" y="503.1543">Exclusions</text><rect fill="#FFFFFF" filter="url(#fw7rasxmgpi2l)" height="459.8438" style="stroke:#FFFFFF;stroke-width:2.0;" width="202" x="67" y="537.9844"/><path d="M116,537.9844 L116,547.2813 L106,557.2813 L67,557.2813 " fill="none" style="stroke:#FFFFFF;stroke-width:2.0;"/><text fill="#000000" font-family="sans-serif" font-size="14" font-weight="bold" lengthAdjust="spacing" textLength="39" x="70" y="551.9795">Body</text><rect fill="#FFFFFF" filter="url(#fw7rasxmgpi2l)" height="110.2031" style="stroke:#FFFFFF;stroke-width:2.0;" width="163" x="86.5" y="567.2813"/><path d="M175.5,567.2813 L175.5,576.5781 L165.5,586.5781 L86.5,586.5781 " fill="none" style="stroke:#FFFFFF;stroke-width:2.0;"/><text fill="#000000" font-family="sans-serif" font-size="14" lengthAdjust="spacing" textLength="79" x="89.5" y="581.2764">Paragraph1</text><rect fill="#F0F8FF" filter="url(#fw7rasxmgpi2l)" height="61.9063" rx="12.5" ry="12.5" style="stroke:#FFFFFF;stroke-width:1.5;" width="143" x="96.5" y="603.5781"/><text fill="#000000" font-family="sans-serif" font-size="12" font-weight="bold" lengthAdjust="spacing" textLength="108" x="106.5" y="624.7168">Topic Sentence</text><text fill="#000000" font-family="sans-serif" font-size="12" lengthAdjust="spacing" textLength="123" x="106.5" y="638.6855">Everything relies on</text><text fill="#000000" font-family="sans-serif" font-size="12" lengthAdjust="spacing" textLength="111" x="106.5" y="652.6543">the infrastructure</text><rect fill="#FFFFFF" filter="url(#fw7rasxmgpi2l)" height="124.1719" style="stroke:#FFFFFF;stroke-width:2.0;" width="182" x="77" y="687.4844"/><path d="M166,687.4844 L166,696.7813 L156,706.7813 L77,706.7813 " fill="none" style="stroke:#FFFFFF;stroke-width:2.0;"/><text fill="#000000" font-family="sans-serif" font-size="14" lengthAdjust="spacing" textLength="79" x="80" y="701.4795">Paragraph2</text><rect fill="#F0F8FF" filter="url(#fw7rasxmgpi2l)" height="75.875" rx="12.5" ry="12.5" style="stroke:#FFFFFF;stroke-width:1.5;" width="162" x="87" y="723.7813"/><text fill="#000000" font-family="sans-serif" font-size="12" font-weight="bold" lengthAdjust="spacing" textLength="108" x="97" y="744.9199">Topic Sentence</text><text fill="#000000" font-family="sans-serif" font-size="12" lengthAdjust="spacing" textLength="137" x="97" y="758.8887">Holistic approach and</text><text fill="#000000" font-family="sans-serif" font-size="12" lengthAdjust="spacing" textLength="142" x="97" y="772.8574">extensive collatoration</text><text fill="#000000" font-family="sans-serif" font-size="12" lengthAdjust="spacing" textLength="67" x="97" y="786.8262">is required</text><rect fill="#FFFFFF" filter="url(#fw7rasxmgpi2l)" height="96.2344" style="stroke:#FFFFFF;stroke-width:2.0;" width="148" x="94" y="821.6563"/><path d="M183,821.6563 L183,830.9531 L173,840.9531 L94,840.9531 " fill="none" style="stroke:#FFFFFF;stroke-width:2.0;"/><text fill="#000000" font-family="sans-serif" font-size="14" lengthAdjust="spacing" textLength="79" x="97" y="835.6514">Paragraph2</text><rect fill="#F0F8FF" filter="url(#fw7rasxmgpi2l)" height="47.9375" rx="12.5" ry="12.5" style="stroke:#FFFFFF;stroke-width:1.5;" width="128" x="104" y="857.9531"/><text fill="#000000" font-family="sans-serif" font-size="12" font-weight="bold" lengthAdjust="spacing" textLength="108" x="114" y="879.0918">Topic Sentence</text><text fill="#000000" font-family="sans-serif" font-size="12" lengthAdjust="spacing" textLength="107" x="114" y="893.0605">The case of trust</text><rect fill="#F0F8FF" filter="url(#fw7rasxmgpi2l)" height="47.9375" rx="12.5" ry="12.5" style="stroke:#FFFFFF;stroke-width:1.5;" width="149" x="93.5" y="937.8906"/><text fill="#000000" font-family="sans-serif" font-size="12" lengthAdjust="spacing" textLength="39" x="103.5" y="959.0293">This is</text><text fill="#000000" font-family="sans-serif" font-size="12" lengthAdjust="spacing" textLength="125" x="107.5" y="972.998">a ratherlengthy text</text><ellipse cx="168" cy="1027.8281" fill="#FFFFFF" filter="url(#fw7rasxmgpi2l)" rx="10" ry="10" style="stroke:#008000;stroke-width:1.5;"/><line style="stroke:#008000;stroke-width:2.5;" x1="161.8128" x2="174.1872" y1="1021.6409" y2="1034.0153"/><line style="stroke:#008000;stroke-width:2.5;" x1="174.1872" x2="161.8128" y1="1021.6409" y2="1034.0153"/><line style="stroke:#4169E1;stroke-width:1.5;" x1="168" x2="168" y1="124.2344" y2="144.2344"/><polygon fill="#4169E1" points="164,134.2344,168,144.2344,172,134.2344,168,138.2344" style="stroke:#4169E1;stroke-width:1.0;"/><line style="stroke:#4169E1;stroke-width:1.5;" x1="168" x2="168" y1="192.1719" y2="212.1719"/><polygon fill="#4169E1" points="164,202.1719,168,212.1719,172,202.1719,168,206.1719" style="stroke:#4169E1;stroke-width:1.0;"/><line style="stroke:#4169E1;stroke-width:1.5;" x1="168" x2="168" y1="246.1406" y2="266.1406"/><polygon fill="#4169E1" points="164,256.1406,168,266.1406,172,256.1406,168,260.1406" style="stroke:#4169E1;stroke-width:1.0;"/><line style="stroke:#4169E1;stroke-width:1.5;" x1="168" x2="168" y1="300.1094" y2="320.1094"/><polygon fill="#4169E1" points="164,310.1094,168,320.1094,172,310.1094,168,314.1094" style="stroke:#4169E1;stroke-width:1.0;"/><line style="stroke:#4169E1;stroke-width:1.5;" x1="168" x2="168" y1="354.0781" y2="374.0781"/><polygon fill="#4169E1" points="164,364.0781,168,374.0781,172,364.0781,168,368.0781" style="stroke:#4169E1;stroke-width:1.0;"/><line style="stroke:#4169E1;stroke-width:1.5;" x1="168" x2="168" y1="408.0469" y2="428.0469"/><polygon fill="#4169E1" points="164,418.0469,168,428.0469,172,418.0469,168,422.0469" style="stroke:#4169E1;stroke-width:1.0;"/><line style="stroke:#4169E1;stroke-width:1.5;" x1="168" x2="168" y1="462.0156" y2="482.0156"/><polygon fill="#4169E1" points="164,472.0156,168,482.0156,172,472.0156,168,476.0156" style="stroke:#4169E1;stroke-width:1.0;"/><line style="stroke:#4169E1;stroke-width:1.5;" x1="168" x2="168" y1="30" y2="76.2969"/><polygon fill="#4169E1" points="164,66.2969,168,76.2969,172,66.2969,168,70.2969" style="stroke:#4169E1;stroke-width:1.0;"/><line style="stroke:#4169E1;stroke-width:1.5;" x1="168" x2="168" y1="665.4844" y2="723.7813"/><polygon fill="#4169E1" points="164,713.7813,168,723.7813,172,713.7813,168,717.7813" style="stroke:#4169E1;stroke-width:1.0;"/><line style="stroke:#4169E1;stroke-width:1.5;" x1="168" x2="168" y1="799.6563" y2="857.9531"/><polygon fill="#4169E1" points="164,847.9531,168,857.9531,172,847.9531,168,851.9531" style="stroke:#4169E1;stroke-width:1.0;"/><line style="stroke:#4169E1;stroke-width:1.5;" x1="168" x2="168" y1="905.8906" y2="937.8906"/><polygon fill="#4169E1" points="164,927.8906,168,937.8906,172,927.8906,168,931.8906" style="stroke:#4169E1;stroke-width:1.0;"/><line style="stroke:#4169E1;stroke-width:1.5;" x1="168" x2="168" y1="515.9844" y2="603.5781"/><polygon fill="#4169E1" points="164,593.5781,168,603.5781,172,593.5781,168,597.5781" style="stroke:#4169E1;stroke-width:1.0;"/><line style="stroke:#4169E1;stroke-width:1.5;" x1="168" x2="168" y1="985.8281" y2="1017.8281"/><polygon fill="#4169E1" points="164,1007.8281,168,1017.8281,172,1007.8281,168,1011.8281" style="stroke:#4169E1;stroke-width:1.0;"/><!--MD5=[5af704fa12095c7cc0932990160b1844]
@startuml Studio_1_Activity_Diagram

skinparam ActivityFontColor automatic
skinparam ActivityBackgroundColor #AliceBlue
skinparam ActivityBorderColor #transparent
skinparam ActivityStartColor #Blue
skinparam ActivityEndColor #Green
skinparam PartitionBorderColor #white
skinparam ArrowColor #RoyalBlue

start

partition **introduction** {
    :Document information
    [[UC1ST1103/Analysis/tex/02_introduction.tex]];
    :Another Document
    [[UC1ST1103/Analysis/document.pdf]];
    :Introduction (to topic);
    :Critical Information;
    :Infrastructure;
    :Thesis statement;
    :Subject Matter;
    :Exclusions;
}

partition **Body** {
    partition Paragraph1 {
        :**Topic Sentence**
        Everything relies on
        the infrastructure;

    }
    
    partition Paragraph2 {
        :**Topic Sentence**
        Holistic approach and
        extensive collatoration
        is required;
    }
    
    partition Paragraph2 {
        :**Topic Sentence**
        The case of trust;
    }
    
    :This is
     a ratherlengthy text;
}

end

@enduml

PlantUML version 1.2021.00(Sun Jan 10 11:25:05 CET 2021)
(GPL source distribution)
Java Runtime: OpenJDK Runtime Environment
JVM: OpenJDK 64-Bit Server VM
Default Encoding: UTF-8
Language: en
Country: null
--></g></svg>